<?xml version="1.0"?>
<svg xmlns="http://www.w3.org/2000/svg" xmlns:xlink="http://www.w3.org/1999/xlink" xmlns:svgjs="http://svgjs.com/svgjs" version="1.1" width="512" height="512" x="0" y="0" viewBox="0 0 512 512" style="enable-background:new 0 0 512 512" xml:space="preserve" class=""><g><g xmlns="http://www.w3.org/2000/svg"><path d="m463.331 257.106c7.68-9.584 16.384-20.447 16.384-33.392s-8.705-23.808-16.384-33.393c-5.363-6.692-10.429-13.015-12.014-18.946-1.695-6.342-.453-14.606.861-23.355 1.877-12.499 3.819-25.423-2.412-36.191-6.329-10.938-18.603-15.73-30.473-20.366-8.145-3.181-15.838-6.186-20.347-10.693-4.509-4.51-7.513-12.203-10.694-20.348-4.636-11.87-9.429-24.145-20.367-30.474-10.769-6.23-23.692-4.289-36.191-2.411-8.751 1.314-17.014 2.557-23.356.86-5.932-1.585-12.254-6.65-18.947-12.014-9.583-7.679-20.447-16.383-33.391-16.383s-23.808 8.704-33.392 16.384c-6.693 5.363-13.015 10.429-18.947 12.014-6.342 1.696-14.605.454-23.355-.86-12.5-1.878-25.423-3.818-36.191 2.412-10.938 6.328-15.73 18.602-20.366 30.472-3.181 8.145-6.185 15.838-10.694 20.347-4.509 4.51-12.203 7.514-20.348 10.695-11.87 4.635-24.144 9.429-30.472 20.366-6.23 10.769-4.289 23.692-2.412 36.19 1.314 8.75 2.556 17.015.861 23.356-1.585 5.932-6.651 12.254-12.014 18.946-7.68 9.585-16.384 20.448-16.384 33.393s8.704 23.808 16.384 33.392c5.363 6.693 10.429 13.016 12.014 18.947 1.695 6.341.453 14.605-.861 23.355-1.877 12.498-3.819 25.422 2.412 36.19 6.329 10.938 18.603 15.731 30.472 20.366 4.688 1.831 9.226 3.603 13.093 5.638l-50.796 87.982c-1.818 3.149-1.786 7.043.084 10.161 1.87 3.119 5.301 4.974 8.922 4.86l49.552-1.636 23.358 43.73c1.721 3.223 5.098 5.3 8.838 5.3 3.572 0 6.885-1.908 8.675-5.009l50.548-87.553c5.547 1.928 11.428 6.639 17.626 11.606 9.584 7.681 20.448 16.385 33.392 16.385s23.808-8.704 33.392-16.385c6.199-4.967 12.079-9.678 17.626-11.606l11.635 20.153c2.077 3.598 6.667 4.81 10.245 2.745 3.587-2.071 4.816-6.658 2.745-10.245l-7.672-13.288c14.73 1.791 30.891 6.211 43.914-1.323 10.938-6.328 15.73-18.603 20.366-30.473 2.132-5.46 4.185-10.717 6.666-14.948l44.605 77.259-43.691-1.442c-3.832-.141-7.353 1.902-9.163 5.293l-20.596 38.556-15.88-27.506c-2.072-3.588-6.658-4.814-10.245-2.745-3.587 2.071-4.816 6.658-2.745 10.245l20.364 35.272c1.791 3.102 5.103 5.009 8.675 5.009 3.679 0 7.088-2.023 8.837-5.299l23.36-43.73 49.551 1.636c3.63.14 7.053-1.742 8.923-4.86s1.902-7.012.084-10.161l-50.796-87.981c3.867-2.034 8.405-3.806 13.092-5.637 11.87-4.636 24.145-9.429 30.473-20.366 6.23-10.769 4.289-23.693 2.412-36.191-1.314-8.75-2.556-17.015-.861-23.355 1.587-5.934 6.653-12.256 12.016-18.95zm-317.404 234.619-20.595-38.556c-1.811-3.391-5.326-5.438-9.167-5.293l-43.688 1.442 44.605-77.258c2.48 4.231 4.533 9.488 6.665 14.948 4.636 11.87 9.429 24.145 20.367 30.473 13.027 7.536 29.191 3.113 43.914 1.323zm290.898-219.544c-2.501 9.356-.966 19.574.519 29.456 1.562 10.403 3.039 20.229-.562 26.452-3.696 6.389-13.046 10.04-22.946 13.905-24.979 9.757-29.769 14.495-39.557 39.558-3.866 9.899-7.517 19.249-13.906 22.945-6.222 3.602-16.048 2.124-26.45.562-27.223-4.091-33.592-2.001-53.911 14.281-8.401 6.731-16.336 13.09-24.012 13.09s-15.611-6.358-24.012-13.09c-20.392-16.34-26.776-18.361-53.911-14.281-10.402 1.562-20.228 3.039-26.451-.562-6.389-3.696-10.04-13.046-13.906-22.944-9.758-24.989-14.475-29.764-39.558-39.558-9.899-3.866-19.249-7.518-22.945-13.906-3.6-6.223-2.124-16.048-.561-26.45 1.484-9.882 3.02-20.101.519-29.457-2.399-8.979-8.704-16.846-14.8-24.454-6.731-8.4-13.09-16.336-13.09-24.012s6.358-15.611 13.09-24.013c6.096-7.608 12.4-15.476 14.8-24.453 2.501-9.356.966-19.575-.519-29.458-1.562-10.402-3.039-20.228.562-26.45 3.696-6.389 13.046-10.04 22.945-13.906 9.226-3.603 18.766-7.328 25.498-14.061 6.731-6.731 10.457-16.271 14.06-25.497 3.866-9.898 7.517-19.248 13.906-22.944 6.222-3.602 16.048-2.126 26.451-.562 9.882 1.486 20.101 3.021 29.457.52 8.978-2.4 16.845-8.704 24.453-14.8 8.401-6.734 16.336-13.092 24.012-13.092s15.611 6.358 24.013 13.09c7.608 6.096 15.475 12.399 24.453 14.8 9.357 2.5 19.575.967 29.457-.519 10.403-1.562 20.229-3.038 26.451.561 6.389 3.697 10.04 13.047 13.906 22.946 3.603 9.226 7.329 18.766 14.06 25.498 6.731 6.73 16.271 10.456 25.497 14.06 9.899 3.865 19.249 7.517 22.946 13.905 3.6 6.223 2.124 16.049.561 26.451-1.484 9.882-3.02 20.101-.519 29.457 2.399 8.978 8.704 16.845 14.8 24.453 6.731 8.401 13.09 16.337 13.09 24.013s-6.358 15.611-13.09 24.012c-6.096 7.608-12.4 15.475-14.8 24.454z" fill="#ffffff" data-original="#000000" style="" class=""/><path d="m424.989 216.215h-19.24c-.293-5.908-.929-11.796-1.904-17.583-.688-4.084-4.554-6.842-8.642-6.149-4.085.688-6.838 4.557-6.15 8.642 1.249 7.412 1.882 15.013 1.882 22.591 0 74.403-60.532 134.936-134.936 134.936s-134.936-60.532-134.936-134.936 60.533-134.937 134.937-134.937c23.691 0 46.929 6.204 67.468 18.078.106.061.213.12.321.175 19.928 11.575 36.837 28.211 48.76 48.62.199.427.414.794.669 1.157 2.383 4.174 4.559 8.502 6.512 12.974 1.657 3.797 6.078 5.529 9.874 3.874 3.796-1.657 5.53-6.078 3.873-9.874-1.255-2.876-2.594-5.698-4.013-8.465l16.635-9.605c3.587-2.071 4.816-6.658 2.745-10.245s-6.659-4.815-10.245-2.745l-16.637 9.605c-11.653-18.031-26.92-33.149-44.588-44.56l9.615-16.654c2.071-3.587.842-8.174-2.745-10.245-3.588-2.071-8.174-.843-10.245 2.745l-9.616 16.655c-18.608-9.536-39.298-15.23-60.883-16.306v-19.24c0-4.143-3.358-7.5-7.5-7.5s-7.5 3.357-7.5 7.5v19.24c-21.834 1.081-42.454 6.854-60.87 16.33l-9.63-16.677c-2.071-3.588-6.659-4.815-10.245-2.745-3.587 2.071-4.816 6.658-2.745 10.245l9.642 16.7c-17.8 11.541-33.01 26.751-44.551 44.551l-16.7-9.642c-3.587-2.071-8.174-.843-10.245 2.745-2.071 3.587-.842 8.174 2.745 10.245l16.678 9.63c-9.476 18.416-15.249 39.036-16.33 60.87h-19.238c-4.142 0-7.5 3.357-7.5 7.5s3.358 7.5 7.5 7.5h19.239c1.081 21.834 6.854 42.454 16.33 60.87l-16.678 9.629c-3.587 2.071-4.816 6.658-2.745 10.245 2.077 3.598 6.667 4.81 10.245 2.745l16.7-9.641c11.541 17.8 26.751 33.01 44.551 44.551l-9.642 16.7c-2.071 3.587-.842 8.174 2.745 10.245 3.571 2.061 8.165.858 10.245-2.745l9.629-16.678c18.416 9.476 39.036 15.249 60.87 16.33v19.239c0 4.143 3.358 7.5 7.5 7.5s7.5-3.357 7.5-7.5v-19.239c21.834-1.081 42.454-6.854 60.87-16.33l9.63 16.677c2.077 3.598 6.667 4.81 10.245 2.745 3.587-2.071 4.816-6.658 2.745-10.245l-9.642-16.7c17.8-11.541 33.01-26.751 44.551-44.551l16.7 9.641c3.571 2.061 8.165.858 10.245-2.745 2.071-3.587.842-8.174-2.745-10.245l-16.678-9.629c9.476-18.416 15.249-39.036 16.33-60.87h19.239c4.142 0 7.5-3.357 7.5-7.5s-3.359-7.499-7.501-7.499z" fill="#ffffff" data-original="#000000" style="" class=""/><path d="m357.756 190.065c-1.843-5.672-7.088-9.482-13.052-9.482h-57.792l-17.859-54.966c-1.843-5.671-7.088-9.481-13.052-9.481s-11.209 3.811-13.052 9.482l-17.859 54.965h-14.77c-4.142 0-7.5 3.357-7.5 7.5s3.358 7.5 7.5 7.5h15.697c5.964 0 11.21-3.812 13.052-9.483l16.931-52.112 16.932 52.111c1.843 5.672 7.088 9.483 13.053 9.483h54.792l-44.328 32.206c-4.825 3.506-6.828 9.673-4.985 15.344l16.932 52.111-44.329-32.206c-4.825-3.506-11.309-3.506-16.133 0l-44.329 32.206 16.932-52.11c1.843-5.672-.16-11.839-4.985-15.345l-44.328-32.206h4.095c4.142 0 7.5-3.357 7.5-7.5s-3.358-7.5-7.5-7.5h-8.023c-5.964 0-11.209 3.811-13.052 9.482-1.843 5.672.16 11.838 4.985 15.344l46.755 33.97-17.859 54.965c-1.842 5.673.162 11.839 4.987 15.345 4.835 3.511 11.318 3.498 16.132-.001l46.756-33.969 46.755 33.97c4.825 3.505 11.308 3.506 16.133.001 4.825-3.506 6.829-9.672 4.986-15.345l-17.859-54.965 46.756-33.97c4.825-3.506 6.829-9.672 4.985-15.344z" fill="#ffffff" data-original="#000000" style="" class=""/></g></g></svg>
