<svg xmlns="http://www.w3.org/2000/svg" xmlns:xlink="http://www.w3.org/1999/xlink" width="550" height="2915" version="1.1" viewBox="0 0 550 2915">
  <g fill="#000" fill-rule="evenodd" stroke="none" stroke-width="1">
    <path d="M299.2 1.3c0 .8-.2.8 0 1 2.1 1.4 6-.7 8-.2 5.2 1.4 15-.2 19.1.6v.5H314c-1 .8-4.4.3-6 .3V4h.5c.8.4 2.4-.4 3.4-.3 4.3.6 8 1.4 13.2 1.4v.3h-.5c-2.2 1.4-13.4-.5-16.3 0-.4 0-1.6.5-2.4.2-.3 0-.4-.8-1.3-.5-.4.1-1 1-2.1.5l-.3-.5c-1.7-.6-4 .9-5 .5-5-1.6-21.5-.6-24.7.3-2.8.8-6.7-.6-8.7.8 29.8.5 62.8-.5 96-.5l51.4.2c6.9-1.2 17.4 1.8 23.6-.5 2.9-1 4.4 1.5 6.9 1 .2 0 2.2 0 2.6-.2l.5-.8c2.9-1 4.4 1.3 7.4.8 6.1-1 12.4.4 18.7-.5 2.4-.4 6 .8 9 .2 1.7-.3 4.4.6 6.8 0 3.5-.7 14.7-.7 18.1 0l2.7-.2H550v6.5c-.9.2-.7-.2-1 .5h1V17H0V6.2c9 0 17.2.2 25.8 0v-.3c-3.4-1.2-13.3-.3-17.6-.3l-.6-.5c5 .1 9-.8 13.2-1.4 1.6-.2 3 1.3 4-.2h-6.1c-1.5-1-10-.4-12.4-.3v-.5h.5c1.5-1 5.3 0 8.5 0h17.9c.5-2 1.4-1.6 4.4-1.4 1.3 1.2 5 .3 6.6 0 3 2 12.1 0 17.1 0 0 .8-.2.5 0 1 2 1.4 6-.5 7.6-.2 5.6 1 15.3-.2 19.5.6v.5H76.1c-1.1.8-4.5.3-6.1.3V4h.5c.8.4 2.4-.4 3.4-.3 4.3.6 8.1 1.4 13.2 1.4v.3h-.3c-1 .6-3.7.3-5.2.2V6h.2c1.4.9 8 .3 10 .3l24.5.2 41.9-.2c2 .4 4.8-.5 6.8 0 4.3.9 11.5.5 15.8 0l2.9.2c3 0 5.2-.4 8.4 0 .7.2 3.2.9 4.2.3l.5-.8c1-.3 3.2 0 3.7.3v.5c1 .4 1.6-.4 1.9-.5 1.2-.5 2.3.6 3.1.8 2.4.6 4.2-.4 5.3-.8 2-.7 3.2 1.2 4.2 1l.8-.8h5c3.5 0 6.8.3 10.5.3 1.9 0 7.5.1 8.2-.8h-9c-1.4-1-5.6-.3-7.6-.3l-17.4-.2c-19-.8-39.2-.3-58.1-.3-5 0-12.4 1-16.3 0-2.3-.6-4.5.4-6.9-.3-1.6-.4-4.3.3-5.3-.8h.3c.6-.4 1.2-.2 1.6-.8l-1-.3c-.7.4-1.5 0-2 .3-.2.5 0 .8-.2 1.3l-.2-.2c-.3-.4 0-.7 0-.8-.5-.6-1-.3-1.3-1.1a4 4 0 0 1 2.3-.6c1.3 1 2.2-.2 4.2-.2 4 0 8.1.4 11.3.5l.3-.8c-.7-.3-.5 0-.8-.8h.5c1.4-.9 8.6-.3 11.1-.3v.6h-.3c-1.6 1-7.6 0-9.7.8V2h6.8c1.6-.8 7.3.3 10 .3h13.5c2 .5 5.5 1.8 7.6 1l.3-.5c.5-.1 4.7 1 6.5.6.8-.2 1.7-.9 2.1-1.1 2-.8 6.6-.5 8.5 0 4.5 1 12.3-.7 17.3.5h6.9c2.3.4 6.9 1.3 10 .6 6-1.4 14.8 1.2 22.3-.6h6c3.4-.7 7.5-.5 11.4-.5h4.7l1.4-.3v-.5c1.1-.6 2.7.3 3.1.5 1.6.6 3.5-.4 4.5-.5 1.4-.2 1.8 1 3.4.5l.8-.8.5.8h11.6l.8-.8h4.2zM157.6.3c.8 0 1.1 0 1.6.2l-.3.3c-.3.2-.8.2-1.5.2l.2-.8zm3 0c3.2 0 6-.4 8.9.2v.8h-.6c-1.8-1.2-6.8.3-8.1-.5l-.3-.6zm25.7 0c1.5 0 3.4-.2 4.5.2l-.3.5c-.6.2-1.4.3-2.3.3-.5-.3-1-.3-1.9-.3V.2zm16 0h.6v.5h-.5V.2zm169.5 0h11v.5h-.2c-1.6 1-7.7 0-9.7.8V2h6.8c1.1-.6 5.8.1 7.7.3h15.8c1.6.4 4.1 1.3 5.7 1.3.5 0 2-.7 2.2-.8.6-.1 4.7 1 6.5.6 1.4-.4 2.5-1 4-1.4 2-.5 5.2 0 6.8.3l2.7-.3c3-.1 6.1 0 9.2.6a53 53 0 0 0 10.2-.6l3.2.3c2.4-.1 6.8-1 9.2 0 .5.2 1.3.9 2.1 1 1.8.5 4.5-.1 5.5-.5 1-.3 2.5.8 3.4.8 1.5 0 4-1 5.6-1.3 3.1-.8 7.2.7 10 .3 7-1.3 12.8-.6 20.2-.6v-.5l-.2-.3c-2.9-.1-6.3-.3-9.5-.3l-.3-.8h6.4c.6.3 4 0 5.2.3V1c-.7.5-.6.2-.5.8.4.3.8.3 1.6.3.7-.6 9.5-1 11.3-.5.2 0 1 .7 1.3.8.8.1 1.9-.6 3.2-.6l.5 1.1c-1.5.3-1 .6-1.3 1.6l-.3-.2c-.3-.5 0-.6-.3-1.1-.2-.2-.2-.2-.7-.3-.7.4-1 .1-1.9 0l-.3.3v.5a5 5 0 0 1 1.9.3l-.3.3c-.8.5-2.2 0-3.4.2-1.6.4-3.2 1-5.5.9-.8 0-2-.6-3.2-.3-6.3 1.4-17-1.3-25 0-4.5.7-11.3-.3-17-.3h-5c-1.7.3-3.8-.5-5.9 0-4 1-9.9.3-14.4.3-2.9 0-4.5.5-6.9 0-5.1-1.2-12 .9-17-.3l-5.9.3c-7-1.5-16.1 1-22 0h-7.7c-6.7 0-12.7.3-18.2 0-2.6-.1-10.1.5-11.6-1h.3c.6-.5 1.2-.3 1.6-1l-1-.2c-.7.4-1 .1-2 0l-.2.3c.1.9.2.6 0 1.3l-.2-.2c-.3-.4 0-.6 0-.8-.4-.6-1-.4-1.4-1.1a4 4 0 0 1 2.4-.6c1.3 1 2.2-.2 4.2-.2 4 0 8.1.4 11.3.5l.3-.8c-.7-.3-.5 0-.8-.8.5-.2.3 0 .5-.3zm23.7 0c.8 0 1.1 0 1.6.2l-.3.3c-.3.2-.8.2-1.5.2l.2-.8zm3 0c3.2 0 6-.4 8.9.2v.8h-.6c-1.8-1.2-6.8.3-8.1-.5l-.3-.6zm25.7 0c.6 0 .6 0 1 .2V1h-1V.2zm16 0h.6v.5h-.5V.2zm1.6 0h.6v.5h-.6V.2zm16.6 0V1l-4 .3-.5-.8c1.1-.4 3-.3 4.5-.3zm17.4 0h8.4v.5l-.3.2a28 28 0 0 0-8.6.3V.5c.4-.2.2 0 .5-.3zm10 0c.7 0 1 0 1.6.2V1c-1.6 0-1.6 0-1.6-.8zM102.6.4c1.2 0 2.1.1 3 .3l-.3.2c-.6.6-8 .6-8.5.3l-.2-.5c1.6 0 5 .4 6-.3zm21.9 0h2V1h-2V.5zm30 0c.8 0 1.3.1 1.8.3v.5H154V.8l.6-.3zm207.9 0h2V1h-2V.5zm30 0c.8 0 1.3.1 1.8.3v.5h-2l-.4-.5.6-.3zm35.5 0c.6.3.2-.1.5.5h-.2c-.5.4-1.3.3-2.1.3V.8c.7 0 1.4 0 1.8-.3zm60.8 0c1 0 1.4.1 2 .3l-.2.2c-.4.4-1.2.3-2 .3l.2-.8zm29.5 0h2V1h-2V.5zM19.7.8l4 .5v.5h-1c-.6.3-1.7-.2-3-.2V.8zm8 0L30 1v.6h-2.6l.2-.8zm92.8 0h.6l-.3.2v.3l-.3-.5zm183.2 0c.7 0 1 0 1.6.2v.6h-2.7V1c.7 0 .8 0 1-.2zm9.2 0v.8c-1.9 0-2.3.3-4 .2v-.5l4-.5zm45.5 0h.5v.5h-.5V.8zm165.3 0h.5v.5h-.5V.8zm-408.2 1c0 .6 0 .6-.2.9l-.6.2c-.8.6-5 .1-6.5.3-.4-.5-.4-.5-.6-1.4 1.3 0 3.3-.4 4.2-.2 2.1.5 1.3.7 3.7.2zm238 0l-.3.9-.6.2c-.8.6-5 .1-6.5.3l-.6-.8.3-.3 4-.5c2 .5 1.1.7 3.6.2zm175.7 0c1 .2 1 .8 2.1.6 2.1-.4 3.3-1 5.8 0l-.3.5-1 .3c-1.4-1-5 0-6.3-.3l-.3-.2v-.9zm-471.8 0v.6c.5.1 1 .3 1.8.3l.3-.3-.6-.3c-.3-.3-.8-.3-1.5-.3zm237.9 0v.6c.5.1 1 .3 1.8.3l.3-.6-.3-.3h-1.8zM.3 2.4c1 .1 2.7-.2 3.6.5h-.2c-.7.5-2.5.3-3.7.3l.3-.8zm91.5 0c1.9 0 5.6-.1 6.9.3l-.5.2c-1 .6-5 .3-7.1.3l-.3-.5c.6-.1.7-.1 1-.3zm7.7 0h6.8v.5c-2 .2-4 .3-6.6.3l-.2-.8zm230 0h7v.5h-.4c-1.1.6-5 .3-7.2.3l-.2-.5.8-.3zm7.9 0h6.8v.5c-2 .2-4 .3-6.6.3l-.2-.8zm201 0h6.9v.5h-.3c-.5.4-2 .3-2.9.3-1.3-.7-2.8.6-3.7-.8zm7.7 0c1.4 0 3.1 0 3.6.3l.3.5h-2.1c-.7-.4-1.3.3-1.8-.8zm-424.3.5l-.2.8h1.3l.3-.5-.3-.3h-1zm238 0l-.3.8h1.3l.3-.5-.3-.3h-1zm162 0c0 .8 0 .8 1.4.8v-.5l-.3-.3h-1zm-496.3.6c.8.5 2 .5 3.2.5v-.3l-.3-.2h-2.9zm21.3 0V4c1-.1.7.1 1-.5h-1zm4.3 0V4h2l.3-.3v-.2h-2.3zm7.8 0V4h1.6v-.5H59zm5.6 0c.1.8 2.5.6 4.2.5l.8-.5h-5zm220 0V4c2 0 5.1.3 6.8-.3v-.2h-6.8zm12.3 0V4h1.6v-.5h-1.6zm5.6 0c-.7.3-2.3.1-3 .5 2.4 0 6.5.5 8-.5h-5zm-240.8.2c.5.4 1.8.4 2.3 0h-2.3zm33.1 1.7v-.9c-1.7.2-3.4.6-4.4-.2l7.3-.6.3.3v.5c-1.7.2-1.4.8-3.2.9zm5.3 0v-.9h-.8V4l14.5-.3.5 1.4h-.3c-1.2 1-5 .3-7.3.3 0-1.2-2.4-1-4.2-.9 0 1.3-.6 1-2.4.9zm232.6 0v-.9c-1.7.2-3.4.6-4.4-.2l7.3-.6.3.3v.5c-1.7.2-1.4.8-3.2.9zm5.3 0v-.9h-.8V4l14.5-.3.5 1.4h-.3c-1.5 1.4-8.7-.5-11.5-.6 0 1.3-.6 1-2.4.9zm206.8-.9v.9h-2.6c0-1.3-2.1-1-4-.9-.7 1.4-5.8 1.2-7.3.9l-.3-.9c.8-.5.9-.8 2.4-.8 1 .6 10 .3 12.6.3v.5h-.8zm5.3.9c-1.3 0-2.7-.6-3.2-1.4l1.4-.3c.3.3.8.3 1.5.3.2.4.2.7.3 1.4zM.3 4c1.6 0 3.3-.2 4.2.5C3 4.7.6 5.1.3 4zM261 4v.5h.7l.6-.2V4H261zm-1.6.3c.2.2 0 0 .5.2l-.5-.2zm14.4.2c-.2.3 0 .2-.5.3l.5.3 1.1.3.3-.9h-1.4zM5.5 4.8c.7 0 1 .1 1.3.3v.3c-1.3 0-1.2.1-1.3-.6zm82.7 0c.6 0 .9.1 1.3.3v.3c-1.3 0-1.3.1-1.3-.6zm237.9 0c.6 0 .8.1 1.3.3v.3c-1.3 0-1.3.1-1.3-.6zm-286.9.3c-1.3 1-5.1.9-7.4.8v.5h4.3c1.1-.7 8 0 10 0 6 0 12 .3 17.8 0 3.6 0 8 .5 10.8-.5v-.3h-3.6l-4.5-.5c-.4.1-1 1-2.1.5-.7-.2-2.8-1-4.2-.5-.3.1-.3.8-1 .5-5.1-1.7-15.4-.2-20-.5zm38 .5c.4.4 1 .4 1.5 0H77zm2.8 0c.5.2.3.2.8 0H80zm177.9.6c-.5.3-1.4.5-1.8.8v.3h2.6c.5-.4 2.2-.5 2.9-.6v-.3c-1.3 0-2.8 0-3.7-.2zm-14 2.4c.5.5.8.5 1.9.5V9l-.3-.3H244zm-51.8.5c-1 .7-3.7.3-5.3.3h-40.5c-5.5 0-11.9-.4-16.6.6l.3.2c1.4 1 10.5 0 13.2 0h22c3.1 0 6.4.5 8.7 0 2.1-.3 5 1.4 6.6.8l.8-.8c1.9-.6 5 .2 6 .6 2.2.6 4.3-.5 5.3-.8 3-1 6 .8 8-.6-3 0-6-.1-8.5-.3zm237.9 0c-2 1.3-9-.2-11.8.3h-31c-3.5 0-8.3-.7-11.1.3v.5h6.3c1-.6 3.8-.3 5.2-.2 3.8.2 8.5.2 12.7.2 5 0 10.4.5 14.2 0 1.1 0 2.2 1 3.7.6 1.4-.4 4.6-1.1 6.8-.6 1.6.5 3.3.5 5 .3 2.4-.7 6.5-.5 9.7-.5v-.3l-.2-.3a44 44 0 0 1-9.5-.3zm21.3 0c-1.7 1.1-7 .2-8.4.6v.3h9.2c2.1 1.8 8.3-.6 11.6.2 3.8 1 8.7 0 14 0h28.9v-.5c-3.3-1-9-.3-13-.3h-28.3a84 84 0 0 1-14-.3zm-250.5.3c.5.3.6.3 1 0h-1zm66 0c-.6.4-2.4.3-3.1.6v.5h3.7l.2-.8-.8-.3zm173.5 0v.6l1.5.2c.4-.4.3-.2.6-.8h-2.1zm-171.4.3c0 1.4 3.6 1.2 5.3 1l.3-.7a5 5 0 0 0-1.9-.3c-.4.2-2.4 0-3.7 0zm7.7 0c-.4.4-.5.2-.8.8h1.6V10h-.3c-.3-.3 0-.1-.5-.3zM215 10c.5.2.3.2.8 0h-.8zm46.6 0v.5h.5l.3-.3V10h-.8zM192 11v.6h.8V11h-.8zm5 0c.3.3 0 .2.5.3l-.5-.3zm38.4 0c.5.4 1.1.4 1.6 0h-1.6zm7.7 0c.4.6.2.4 1 .6l.3-.3V11h-1.3zm-15 .3c.5.4 2.3.4 2.9 0h-3zm-25.8.6l-.3.8h3.4c1.1-.6 4.7.4 6-.6-3 0-6.4 0-9.1-.2zm-29.5.2c-.4.3-.8.3-1.6.3v.3h.3c.7.5 4.2.4 4.5.2.2-.2 0 0 .2-.5h-.5c-.5-.4-2-.3-3-.3zm39.2 0c1 1 8.4.6 10.5.6 1.5 0 3.7.3 4.2-.6H212zm17.1 0l-.8.6 8.7.2c.4 0 1.4.5 2.1.3 1-.2 2-.5 3.4-.5 1.7 0 5.6.5 6.3-.6h-19.7zm23.7 0v.6h.3V12h-.3zm-75.3.3v.5h.6v-.5h-.6zm80.3 0c.5.3 1.1.3 1.6 0h-1.6zm-202.1.3c.4.4.1.3.8.5l.2-.3v-.2h-1zm39 0v.5c.9-.1.6.1 1-.5h-1zm4.7 0v.5h1.3v-.5h-1.3zm11.3 0l.5.2c-.2-.2 0 0-.5-.2zm182.9 0c.5.2.6.2 1 0h-1zm39 0v.5c.9-.1.6.1 1-.5h-1zm4.7 0v.5h1.3v-.5h-1.3zm14.7 0l.5.2c-.2-.2 0 0-.5-.2zm10.5 0v.5h1.3v-.5h-1.3zm5 0v.5h1l.3-.3v-.2h-1.3zm38.7 0c.4.5.4.4 1.3.5l.8-.5h-2zm7.4 0v.5h2.4V13l-.3-.2h-2.1zm53.1 0c.1.7.7.6 2.1.5v-.5h-2zm7.4 0c.5.4 1 .5 1.9.5l.2-.3v-.2h-2zm39.5 0c.4.5.4.4 1.3.5v-.5h-1.3zm5 0v.5h1.3v-.5h-1.3zm11.3 0l.5.2c-.2-.2 0 0-.5-.2zm14 0v.5h1.3v-.5h-1.4zm-539.8 1v.6c2 0 8 .5 9.2-.3l-9.2-.2zm10.8 0c-.3.3 0 .2-.5.3v.3h2.9V14l-2.4-.2zm4.2 0c-.3.3-1.3.4-1.6.6 2.1.1 8 1.2 9-.5h-3.2c-.5.3-2.8 0-4.2 0zm8.7 0c0 .8-.1.5 1 .6V14l-.2-.2h-.8zm4.2 0v.3c-.2.3-.5 0-.3.3 3.5.6 7 .7 10.6.3v-.3c-1.3-.4-3.6-.3-5.3-.3-.9-.6-3.6-.3-5-.2zm19.5 0c-.3.3 0 .2-.5.3v.3c3.3.5 7.8.9 12 0V14c-1.5-.3-4.2-.2-5.7 0-2 .4-3.8-.2-5.8-.2zm14.5 0c0 .8-.2.5 1 .6V14l-.3-.2H66zm2 0v.6c2.3.2 7 1 8.7-.3l-8.6-.2zm9.8 0c-.3.3 0 .2-.5.3v.3h2.9V14l-2.4-.2zm7.9 0c-1 .6-3.5 0-4.5.6 1.8 0 8.6.4 9.2-.5h-4.7zm196.3 0c-.3.3 0 .2-.5.3v.3h6.6c.8.5 2.2-.3 3.6 0 3 .6 6.2.6 9.3 0l-.6-.3c-1.4-.9-4.6.2-6 0-4.3-.5-8.6-.2-12.4-.2zm21.8 0c.1.8 0 .5 1.1.6V14l-.3-.2h-.8zm2.2 0v.6c2.2.2 7 1 8.9-.3l-9-.2zm9.7 0c-.3.3 0 .2-.5.3v.3h2.9V14l-2.4-.2zm7.9 0c-1 .6-3.5 0-4.5.6 1.8 0 8.6.4 9.2-.5h-4.7zm49.2 0v.6c2 0 8.3.5 9.5-.3l-9.5-.2zm10.8 0c-.3.3 0 .2-.5.3v.3h2.9V14l-2.4-.2zm4.2 0c-.3.3-1.3.4-1.6.6 2.1.1 8 1.2 9-.5H392c-.5.3-2.8 0-4.2 0zm8.7 0c0 .8-.1.5 1 .6V14l-.2-.2h-.8zm4.2 0v.3c-.2.3-.5 0-.3.3 1.8 1.1 11.4.1 13.4 0 1.7-.1 4.7.5 5.8-.3-6-.7-12-.2-19-.2zm62.9 0l-.8.6c5 0 9.2.4 13.7.3 1.9 0 4.3.2 5.8-.3l-.6-.3c-1.5-1-4.7.3-6.3 0-3.6-.6-8-.2-11.8-.2zm21.6 0c0 .8-.1.5 1 .6V14l-.2-.2h-.8zm2 0v.6c2.3.2 7.2 1 9-.3l-9-.2zm9.8 0c-.3.3 0 .2-.5.3v.3h2.9V14l-2.4-.2zm7.9 0c-1 .7-3.7 0-4.7.6 1.8 0 8.9.4 9.4-.5H505zM277 14l.5.3-.5-.3zm146.6 0l.5.3-.5-.3zm17.4 0v.6l.7-.3V14h-.7zm17.3 0l.5.3-.5-.3zm-19 .3c.4.4.2.3.9.5l.2-.2v-.3h-1z"/>
    <polygon points="0 16 550 16 550 2915 0 2915"/>
  </g>
</svg>
