<?xml version="1.0" standalone="no"?>
<!DOCTYPE svg PUBLIC "-//W3C//DTD SVG 1.1//EN" "http://www.w3.org/Graphics/SVG/1.1/DTD/svg11.dtd" >
<svg xmlns="http://www.w3.org/2000/svg" xmlns:xlink="http://www.w3.org/1999/xlink" version="1.1">
<metadata>
Created by FontForge 20170924 at Fri Jan  1 00:00:00 1904
 By www-data
*1991 AG Baltia
</metadata>
<defs>
<font id="AGOptCyrillicNormal" horiz-adv-x="2277" >
  <font-face 
    font-family="AGOptCyrillic"
    font-weight="400"
    font-stretch="normal"
    units-per-em="4096"
    panose-1="2 11 114 0 0 0 0 0 0 0"
    ascent="3276"
    descent="-820"
    x-height="1925"
    cap-height="2789"
    bbox="-135 -1081 4170 3478"
    underline-thickness="38"
    underline-position="-160"
    unicode-range="U+0020-2122"
  />
<missing-glyph horiz-adv-x="3072" 
d="M512 0v2560h2048v-2560h-2048zM2496 64v2432h-1920v-2432h1920z" />
    <glyph glyph-name=".notdef" horiz-adv-x="3072" 
d="M512 0v2560h2048v-2560h-2048zM2496 64v2432h-1920v-2432h1920z" />
    <glyph glyph-name=".null" horiz-adv-x="0" 
 />
    <glyph glyph-name="nonmarkingreturn" horiz-adv-x="0" 
 />
    <glyph glyph-name="space" unicode=" " horiz-adv-x="2048" 
 />
    <glyph glyph-name="exclam" unicode="!" horiz-adv-x="1364" 
d="M872 2441l-147 -1732h-82l-156 1732v123q0 287 193 287q112 0 152.5 -81.5t44.5 -205.5q0 -90 -5 -123zM434 201q0 100 75 172.5t175 72.5q99 0 170.5 -73.5t71.5 -171.5q0 -100 -72 -173t-170 -73q-101 0 -175.5 73t-74.5 173z" />
    <glyph glyph-name="quotedbl" unicode="&#x22;" horiz-adv-x="1364" 
d="M483 2523v-692q0 -135 -29 -190.5t-106 -55.5q-81 0 -110 50.5t-29 195.5v692q-4 37 -4 98q0 230 143 230q77 0 108 -53t31 -168q0 -70 -4 -107zM1151 2523v-692q0 -136 -28.5 -191t-106.5 -55q-80 0 -109.5 51t-29.5 195v692q-5 37 -5 98q0 230 144 230
q78 0 108.5 -52.5t30.5 -168.5q0 -70 -4 -107z" />
    <glyph glyph-name="numbersign" unicode="#" 
d="M2044 1114v-229h-447l-127 -885h-237l127 885h-549l-135 -885h-238l135 885h-438v229h475l86 545h-450v229h483l127 832h238l-127 -832h544l123 832h238l-123 -832h397v-229h-430l-82 -545h410zM1479 1659h-545l-86 -545h549z" />
    <glyph glyph-name="dollar" unicode="$" 
d="M1237 1192v-1049q186 45 298 188.5t112 356.5q0 117 -39.5 202.5t-97 136t-137 93t-136.5 72.5zM1073 1642v943q-171 -39 -274 -161.5t-103 -297.5q0 -217 107.5 -312.5t269.5 -171.5zM1237 2597v-1028q106 -42 238 -95t239 -126.5t179.5 -198.5t72.5 -305
q0 -237 -95 -419t-261.5 -295.5t-372.5 -149.5v-455q-17 2 -42 7t-40 5t-41 -5t-41 -7v430q-255 0 -438.5 41t-327.5 172q74 258 74 352h45q133 -201 277.5 -301t369.5 -100v1147q-312 115 -504 264t-192 469q0 322 192 511.5t504 237.5v316q10 -1 25.5 -4t31 -5.5
t25.5 -2.5t25.5 2t31 5.5t25.5 4.5v-303q401 0 618 -189q-64 -139 -106 -323h-45q-152 332 -467 348z" />
    <glyph glyph-name="percent" unicode="%" horiz-adv-x="3641" 
d="M2630 2851l-1524 -2986q-66 8 -98 8q-34 0 -90 -8l1523 2986q58 -8 90 -8q33 0 99 8zM1495 2089q0 -181 -87.5 -341.5t-238 -257.5t-333.5 -97q-194 0 -342.5 87.5t-229 242t-80.5 345.5t90 347t247.5 244.5t346.5 88.5q281 0 454 -188t173 -471zM3428 643
q0 -190 -90 -348.5t-254 -257.5q-57 -32 -152 -57t-163 -25q-291 0 -471 188.5t-180 479.5q0 190 90.5 348.5t247.5 249t346 90.5q185 0 327.5 -88.5t220.5 -242t78 -337.5zM2413 578q0 -212 80.5 -366.5t271.5 -154.5q140 0 222.5 97t114 234t31.5 276q0 544 -335 544
q-218 0 -301.5 -189t-83.5 -441zM479 2015q0 -209 80.5 -364.5t271.5 -155.5q200 0 284.5 189t84.5 417q0 545 -336 545q-219 0 -302 -190t-83 -441z" />
    <glyph glyph-name="ampersand" unicode="&#x26;" horiz-adv-x="2957" 
d="M1307 1663q194 139 305.5 287.5t111.5 343.5q0 146 -91 245t-236 99q-170 0 -259 -109t-89 -276q0 -143 69.5 -284.5t188.5 -305.5zM2187 582l512 -590q-164 16 -250 16q-38 0 -116 -5t-117 -7q-146 211 -258 344q-114 -126 -255 -215.5t-301 -135.5t-329 -46
q-223 0 -401 83.5t-277.5 238.5t-99.5 362q0 505 717 864l24 12q-149 227 -211.5 353t-62.5 286q0 276 175.5 441t455.5 165q153 0 276 -50.5t193.5 -148.5t70.5 -231q0 -231 -148.5 -399t-408.5 -342q49 -61 159 -206t189 -245.5t156 -187.5l217 -246q244 352 488 807
q46 -82 155 -168q-282 -429 -553 -749zM1106 1405q-6 -4 -17 -9.5t-16 -11.5q-208 -130 -327 -288t-119 -375q0 -170 79.5 -305.5t218.5 -214t304 -78.5q206 0 379.5 104.5t267.5 198.5q-490 597 -770 979z" />
    <glyph glyph-name="quotesingle" unicode="'" horiz-adv-x="1139" 
d="M705 2523v-692q0 -136 -28.5 -191t-107.5 -55q-81 0 -110 50.5t-29 195.5v692q-4 37 -4 98q0 230 143 230q79 0 109.5 -52.5t30.5 -168.5q0 -70 -4 -107z" />
    <glyph glyph-name="parenleft" unicode="(" horiz-adv-x="1139" 
d="M905 3064l82 -78q-133 -183 -226.5 -388.5t-146.5 -419.5t-75.5 -435.5t-22.5 -460.5q0 -447 107 -860q49 -190 128.5 -350.5t235.5 -407.5l-82 -82q-178 207 -299.5 403.5t-199.5 406.5t-115 446.5t-37 504.5q0 324 72.5 629t218.5 581.5t360 510.5z" />
    <glyph glyph-name="parenright" unicode=")" horiz-adv-x="1139" 
d="M233 -418l-81 82q157 248 236 407t128 351q107 413 107 860q0 253 -22.5 469.5t-75 427t-144.5 414.5t-229 393l81 78q217 -238 362 -513t217.5 -579t72.5 -629q0 -277 -37 -510t-114 -441t-200.5 -406.5t-300.5 -403.5z" />
    <glyph glyph-name="asterisk" unicode="*" horiz-adv-x="1819" 
d="M336 2556l516 -369l-57 631q155 0 233 4l-61 -643l512 381q47 -109 123 -209l-578 -262l573 -254q-56 -82 -114 -205l-520 365l69 -635q-20 0 -64 2t-67 2q-70 0 -106 -4l57 622l-500 -364q-41 69 -62.5 106.5t-31.5 53.5l-25 41l574 266l-590 262q82 95 119 209z" />
    <glyph glyph-name="plus" unicode="+" horiz-adv-x="2482" 
d="M1110 1171v897h262v-897h901v-262h-901v-909h-262v909h-901v262h901z" />
    <glyph glyph-name="comma" unicode="," horiz-adv-x="1139" 
d="M188 -659l287 909q37 111 74.5 172t114.5 61q68 0 117.5 -41.5t49.5 -109.5q0 -74 -90 -217l-483 -803z" />
    <glyph glyph-name="hyphen" unicode="-" horiz-adv-x="1364" 
d="M168 778v254h1024v-254h-1024z" />
    <glyph glyph-name="period" unicode="." horiz-adv-x="1139" 
d="M324 201q0 100 74.5 172.5t174.5 72.5t171 -73t71 -172q0 -101 -71.5 -173.5t-170.5 -72.5q-101 0 -175 73t-74 173z" />
    <glyph glyph-name="slash" unicode="/" horiz-adv-x="1139" 
d="M1241 3064l-1167 -3482q-58 8 -94 8q-33 0 -115 -8l1167 3482q74 -8 107 -8q36 0 102 8z" />
    <glyph glyph-name="zero" unicode="0" 
d="M1155 82q215 0 349.5 154t195.5 442.5t61 697.5q0 338 -62.5 618.5t-197.5 449.5t-338 169q-256 -10 -397 -152.5t-195.5 -410t-54.5 -682.5q0 -529 116.5 -907.5t522.5 -378.5zM180 1282q0 378 83.5 704t304 540t603.5 214q312 0 518.5 -154t307 -459.5t100.5 -750.5
q0 -329 -68 -595t-194 -450t-300.5 -280t-387.5 -96q-525 0 -746 354t-221 973z" />
    <glyph glyph-name="one" unicode="1" 
d="M991 -12v2474l-28 12l-455 -246q-43 100 -123 152q535 218 864 422l70 -21v-2793q-36 2 -87.5 7t-76.5 5q-28 0 -84 -5t-80 -7z" />
    <glyph glyph-name="two" unicode="2" 
d="M504 2150l-144 201q245 389 709 389q240 0 425 -75.5t289.5 -236.5t104.5 -405q0 -237 -111 -443.5t-311 -416.5l-487 -520l-250 -262l-70 -78l21 -45q226 0 638 18t619 35q-1 -21 -4 -49.5t-5.5 -58.5t-2.5 -47q0 -19 2 -48.5t5.5 -60.5t4.5 -47h-1757v61q58 56 170 169
t166 167l246 254q276 284 415 450.5t236.5 395.5t97.5 518q0 582 -479 582q-189 0 -325.5 -123t-174.5 -311z" />
    <glyph glyph-name="three" unicode="3" 
d="M500 2273l-103 221q73 83 232.5 164.5t369.5 81.5q189 0 369 -63t295 -196.5t115 -326.5q0 -239 -145.5 -428t-407.5 -284q192 -16 346 -90.5t244 -211t90 -329.5q0 -261 -139 -456t-377 -297.5t-525 -102.5q-344 0 -618 131q22 54 49 250l24 16q244 -270 553 -270
q206 0 355.5 93.5t227 258t77.5 369.5q0 265 -149.5 409t-415.5 144q-41 0 -101.5 -7.5t-95.5 -9.5q2 17 7 45t5 41q0 15 -5 43t-7 39q106 -8 156 -8q243 0 367 173t124 425q0 228 -115 372t-319 144q-149 0 -277.5 -93t-185.5 -234z" />
    <glyph glyph-name="four" unicode="4" 
d="M1356 762h-1270v53q193 285 317.5 463.5t320.5 456.5t355 500t346 485q14 -1 56 -7t75 -6q26 0 62 5.5t65 7.5v-1725l377 17q-8 -82 -8 -131q0 -44 8 -136l-377 17v-774q-35 2 -86.5 7t-76.5 5q-30 0 -85 -5t-79 -7v774zM1364 995v1315l-21 17q-137 -181 -272.5 -372.5
t-365.5 -529t-279 -409.5l16 -21h922z" />
    <glyph glyph-name="five" unicode="5" 
d="M508 1380v1348l24 12h1315l17 -33q-25 -107 -25 -299q-294 66 -553 66h-606v-913q198 98 438 98q219 0 403 -98.5t290 -276t106 -403.5q0 -239 -124 -452.5t-357 -343.5t-539 -130q-400 0 -655 160l61 270l29 4q90 -145 252 -222t342 -77q287 0 448.5 220.5t161.5 537.5
q0 639 -586 639q-237 0 -405 -135z" />
    <glyph glyph-name="six" unicode="6" 
d="M1630 2728l45 -143q-85 28 -192 28q-235 0 -405 -129t-273 -334.5t-150 -439.5t-49 -448q236 364 664 364q248 0 427 -94.5t271 -267t92 -400.5q0 -259 -112 -467.5t-316 -325t-465 -116.5q-328 0 -536.5 157.5t-300.5 419.5t-92 586q0 366 87.5 665.5t250 514t385 328.5
t485.5 114q123 0 184 -12zM1184 1470q-578 -32 -578 -720q0 -168 67.5 -323t196.5 -250t301 -95q173 0 291.5 105.5t176 279t57.5 369.5q0 289 -140.5 460t-371.5 174z" />
    <glyph glyph-name="seven" unicode="7" 
d="M328 2740h1749l4 -119q-174 -284 -457 -770.5t-560.5 -990t-461.5 -872.5q-31 2 -74.5 7t-64.5 5q-25 0 -72 -5t-67 -7l4 45q100 165 343 563.5t449 741t345.5 581.5t279.5 498l-16 16q-613 -10 -1401 -66q2 40 7 99.5t5 89.5t-5 92t-7 92z" />
    <glyph glyph-name="eight" unicode="8" 
d="M1466 1552v-28q98 -20 226.5 -80.5t244 -209t115.5 -386.5q0 -268 -117 -470.5t-327 -312.5t-478 -110q-263 0 -467 90t-319 272t-115 449q0 259 170.5 469t423.5 272v29q-136 33 -293 164.5t-157 392.5q0 201 111.5 349t290.5 223t380 75q173 0 301.5 -31.5
t243.5 -119.5q225 -173 225 -455q0 -130 -61.5 -252t-166.5 -209t-231 -121zM1151 2613q-215 0 -340 -184q-58 -83 -78 -170.5t-20 -210.5q0 -200 139 -352q103 -119 303 -119q220 0 344 188q86 120 86 357q0 207 -115 349t-319 142zM1151 1446q-177 0 -304 -97t-192 -252
t-65 -327q0 -189 59.5 -345t187 -249.5t318.5 -93.5q270 0 403.5 214t133.5 499q0 179 -57 326.5t-179 236t-305 88.5z" />
    <glyph glyph-name="nine" unicode="9" 
d="M393 217l45 16q172 -151 398 -151q191 0 367.5 157.5t283.5 436.5q131 348 131 774q-98 -175 -276.5 -274t-383.5 -99q-217 0 -394.5 96.5t-278.5 276t-101 418.5q0 265 115.5 463.5t324.5 303.5t478 105q309 0 508.5 -162.5t290 -427t90.5 -577.5q0 -348 -92 -646
t-257 -516.5t-382 -337t-457 -118.5q-115 0 -209.5 19t-114.5 34q-11 96 -86 209zM1614 1905q0 205 -60.5 366t-178.5 251.5t-285 90.5q-278 0 -411.5 -214.5t-133.5 -506.5q0 -268 126.5 -455.5t385.5 -187.5q169 0 295.5 95t194 248t67.5 313z" />
    <glyph glyph-name="colon" unicode=":" horiz-adv-x="1139" 
d="M324 201q0 100 74.5 172.5t174.5 72.5t171 -73t71 -172q0 -101 -71.5 -173.5t-170.5 -72.5q-101 0 -175 73t-74 173zM324 1679q0 101 74.5 173.5t174.5 72.5q99 0 170.5 -73.5t71.5 -172.5q0 -102 -71.5 -173.5t-170.5 -71.5q-101 0 -175 72t-74 173z" />
    <glyph glyph-name="semicolon" unicode=";" horiz-adv-x="1139" 
d="M188 -659l287 909q37 111 74.5 172t114.5 61q68 0 117.5 -41.5t49.5 -109.5q0 -74 -90 -217l-483 -803zM397 1679q0 101 75 173.5t175 72.5q98 0 170 -74t72 -172q0 -101 -72 -173t-170 -72q-101 0 -175.5 72t-74.5 173z" />
    <glyph glyph-name="less" unicode="&#x3c;" horiz-adv-x="2482" 
d="M2286 225v-254l-2085 959v221l2085 958v-254l-1754 -815z" />
    <glyph glyph-name="equal" unicode="=" horiz-adv-x="2482" 
d="M2273 1569v-262h-2064v262h2064zM2273 774v-262h-2064v262h2064z" />
    <glyph glyph-name="greater" unicode="&#x3e;" horiz-adv-x="2482" 
d="M197 225l1753 815l-1753 815v254l2084 -958v-221l-2084 -959v254z" />
    <glyph glyph-name="question" unicode="?" horiz-adv-x="1593" 
d="M1090 1757l-259 -282q-102 -114 -155 -199t-53 -186t64.5 -169.5t164.5 -68.5q59 0 119 25l24 -17l-49 -115q-27 -16 -110 -16q-125 0 -233 56.5t-173 166t-65 256.5q0 141 59.5 251t177.5 233l246 262q221 229 221 409q0 155 -112 247.5t-269 92.5q-95 0 -191 -52.5
t-153 -131.5l-25 205q226 127 402 127q185 0 325 -65t214.5 -185.5t74.5 -282.5q0 -172 -59.5 -297t-185.5 -264zM504 201q0 100 75 172.5t175 72.5q99 0 170 -73t71 -172q0 -101 -71.5 -173.5t-169.5 -72.5q-101 0 -175.5 73t-74.5 173z" />
    <glyph glyph-name="at" unicode="@" horiz-adv-x="3277" 
d="M1122 1057q0 -307 250 -307q131 0 260 168t213 395t84 370q0 105 -53 177.5t-164 72.5q-167 0 -302 -151t-211.5 -361t-76.5 -364zM2028 1868l53 188h360l-295 -1073q-20 -83 -20 -98q0 -55 29.5 -95t85.5 -40q85 0 190.5 61t202.5 179t159 295.5t62 393.5
q0 194 -118 419t-370 386.5t-626 161.5q-278 0 -519 -92t-417.5 -259t-275.5 -398t-99 -504q0 -363 176 -649.5t483 -443.5t676 -157q215 0 407.5 70.5t351 199.5t278.5 304h250q-124 -231 -327.5 -408t-457.5 -273.5t-522 -96.5q-309 0 -590 103t-496 295.5t-334.5 456.5
t-119.5 570q0 411 197 751.5t542.5 538t767.5 197.5q297 0 549 -94t434.5 -259t279.5 -374.5t97 -435.5q0 -225 -85.5 -433t-221.5 -361t-296.5 -241t-301.5 -88q-171 0 -254 90.5t-94 204.5q-158 -148 -257.5 -211t-254.5 -63q-221 0 -385 172q-164 164 -164 422
q0 217 123.5 432t328 350t432.5 135q278 0 386 -229z" />
    <glyph glyph-name="A" unicode="A" horiz-adv-x="2732" 
d="M1438 2851l1228 -2863q-41 2 -110 7t-102 5q-40 0 -113 -5t-105 -7q-52 151 -126.5 351.5t-149.5 386.5t-154 368h-1040q-308 -776 -406 -1106q-33 2 -80.5 7t-70.5 5q-28 0 -77.5 -5.5t-65.5 -6.5l1277 2863h95zM1745 1266l-455 1048l-446 -1048h901z" />
    <glyph glyph-name="B" unicode="B" horiz-adv-x="2503" 
d="M750 2638v-1082h168q328 0 516 86q152 73 233.5 201.5t81.5 294.5q0 279 -175.5 389.5t-520.5 110.5h-303zM750 1405v-1253h389q198 0 355 80.5t245 226t88 327.5q0 342 -221 480.5t-627 138.5h-229zM975 0h-586v2789h803q308 0 509 -54.5t302.5 -179t101.5 -331.5
q0 -277 -181 -465.5t-466 -259.5q298 -19 524 -170.5t226 -472.5q0 -438 -369 -692q-161 -109 -364 -136.5t-500 -27.5z" />
    <glyph glyph-name="C" unicode="C" horiz-adv-x="2732" 
d="M2523 430l-20 -258q-349 -233 -906 -233q-333 0 -600.5 101.5t-456.5 294.5t-286.5 465t-97.5 605q0 446 202.5 775t555.5 500t786 171q445 0 880 -189q-48 -123 -86 -315l-28 -4q-39 51 -150 135t-278 150.5t-355 66.5q-273 0 -486 -102.5t-355 -283t-213.5 -417
t-71.5 -503.5q0 -385 138.5 -679t389 -453t570.5 -159q283 0 512 112t356 220z" />
    <glyph glyph-name="D" unicode="D" horiz-adv-x="3187" 
d="M770 2626v-2442q115 -7 189 -11.5t171 -8.5t160 -4q437 0 680 123q590 294 590 1175q0 330 -71 555t-220.5 363t-392 202t-590.5 64q-83 0 -254.5 -7t-261.5 -9zM410 0v2789h929h283q294 0 507 -47t394 -198q221 -182 329.5 -450.5t108.5 -573.5q0 -755 -516 -1209
q-162 -141 -361 -209t-398 -85t-478 -17h-798z" />
    <glyph glyph-name="E" unicode="E" horiz-adv-x="2048" 
d="M725 2597v-1028h635q74 0 205 9.5t159 10.5q-1 -9 -4.5 -31t-5.5 -42.5t-2 -32.5q0 -10 2.5 -33t5.5 -44t4 -38q-59 2 -174.5 11.5t-189.5 9.5h-635v-1196q251 0 741 16q189 6 377 37q-1 -15 -4 -38.5t-5.5 -47t-2.5 -37.5q0 -28 4.5 -60t7.5 -63h-1478v2789h1454
q-2 -25 -7.5 -60.5t-5.5 -62.5q0 -26 5.5 -63.5t7.5 -58.5q-148 29 -369 45l-410 8h-315z" />
    <glyph glyph-name="F" unicode="F" horiz-adv-x="2048" 
d="M365 -12v2801h1454q-2 -25 -7.5 -60.5t-5.5 -62.5q0 -26 5.5 -63.5t7.5 -58.5q-148 29 -369 45l-410 8h-315v-1028h635q74 0 205 9.5t159 10.5q-1 -9 -4.5 -31t-5.5 -42.5t-2 -32.5q0 -10 2.5 -33t5.5 -44t4 -38q-59 2 -174.5 11.5t-189.5 9.5h-635v-1401q-38 2 -95.5 7
t-84.5 5q-32 0 -93 -5t-87 -7z" />
    <glyph glyph-name="G" unicode="G" horiz-adv-x="3187" 
d="M2810 2298h-45q-169 192 -412.5 294.5t-509.5 102.5q-261 0 -478.5 -85t-373.5 -249.5t-241.5 -405t-85.5 -546.5q0 -407 138.5 -703t414.5 -454t671 -158q372 0 639 139v1053q19 -1 54 -4t70 -5.5t56 -2.5q18 0 53.5 2.5t69.5 5.5t58 4v-1159q-546 -188 -1114 -188
q-503 0 -842.5 185t-504.5 512t-165 753q0 463 205.5 794t569.5 499.5t823 168.5q273 0 492 -43t349.5 -96.5t202.5 -98.5q-32 -88 -94 -315z" />
    <glyph glyph-name="H" unicode="H" horiz-adv-x="3187" 
d="M2454 1614v1175q17 -1 53 -4.5t71 -5.5t56 -2q19 0 53.5 2.5t68.5 5.5t58 4v-2801q-38 2 -95.5 7t-84.5 5q-32 0 -93 -5t-87 -7v1409q-728 20 -861 20q-126 0 -864 -20v-1409q-35 2 -94 7t-86 5q-32 0 -93 -5t-87 -7v2801q17 -1 53 -4.5t71 -5.5t56 -2q19 0 53.5 2.5
t70.5 5.5t56 4v-1175q153 -4 421 -12.5t443 -8.5q179 0 445 8.5t416 12.5z" />
    <glyph glyph-name="I" unicode="I" horiz-adv-x="1139" 
d="M389 -12v2801q17 -1 53 -4.5t71 -5.5t56 -2q18 0 53.5 2.5t69.5 5.5t58 4v-2801q-36 2 -94 7t-87 5q-30 0 -92 -5t-88 -7z" />
    <glyph glyph-name="J" unicode="J" horiz-adv-x="1139" 
d="M811 2789v-2433q0 -268 -99.5 -474t-289.5 -323t-447 -124l-32 110q307 12 407.5 215.5t100.5 542.5v2486q17 -1 53 -4.5t71 -5.5t56 -2q19 0 53.5 2.5t68.5 5.5t58 4z" />
    <glyph glyph-name="K" unicode="K" horiz-adv-x="2503" 
d="M2384 2789l-930 -893l-348 -352q121 -138 247 -280t250 -280.5t270.5 -304t227.5 -261.5l332 -410v-20q-46 2 -119.5 7t-105.5 5q-40 0 -118 -5t-112 -7q-153 223 -282 372l-893 1045q-30 20 -58 20q-12 0 -12 -8v-1429q-35 2 -94 7t-86 5q-30 0 -92 -5t-88 -7v2801
q17 -1 53 -4.5t71 -5.5t56 -2q19 0 53.5 2.5t70.5 5.5t56 4v-1265q0 -8 21 -8q36 0 82 32q65 52 217 201l1007 1040q41 -3 83.5 -7.5t80.5 -4.5q16 0 47 2.5t61.5 5.5t51.5 4z" />
    <glyph glyph-name="L" unicode="L" horiz-adv-x="2048" 
d="M725 2789v-2596q251 0 741 16q136 4 389 37q-1 -15 -4 -38.5t-5.5 -47t-2.5 -37.5q0 -28 4.5 -60t7.5 -63h-1490v2789q17 -1 53 -4.5t71 -5.5t56 -2q19 0 53.5 2.5t68.5 5.5t58 4z" />
    <glyph glyph-name="M" unicode="M" horiz-adv-x="3641" 
d="M3019 2789h86q63 -588 90.5 -840t73 -640.5t87.5 -712.5t81 -608q-42 2 -103.5 7t-89.5 5q-34 0 -99 -5t-93 -7q-26 303 -70 787t-77.5 806.5t-61.5 519.5q-774 -1379 -1074 -2068h-45l-225 463q-101 210 -205.5 414.5t-200 387.5t-206 393.5t-215.5 409.5
q-15 -138 -61 -528t-76 -672.5t-47 -508.5t-17 -404q-31 2 -76.5 7t-66.5 5q-28 0 -77 -5t-71 -7q40 246 137 905.5t166.5 1173.5t89.5 722h107q203 -402 382.5 -749t370 -692.5t406.5 -704.5q35 62 229 416t344.5 631.5t283.5 519.5t323 579z" />
    <glyph glyph-name="N" unicode="N" horiz-adv-x="3187" 
d="M2785 2789v-2801h-123q-91 115 -213 250l-1769 1957h-41v-2207q-23 2 -60 7t-55 5q-21 0 -60 -5t-54 -7v2801h159l1946 -2109h41v2109q28 -3 58 -7.5t57 -4.5q12 0 33.5 2t44 5.5t36.5 4.5z" />
    <glyph glyph-name="O" unicode="O" horiz-adv-x="3412" 
d="M2839 1417q0 285 -55 497.5t-204 403.5q-151 192 -377 295t-474 103q-355 0 -617 -170t-400.5 -482t-138.5 -725q0 -400 149 -687t405 -432.5t565 -145.5q294 0 514 127.5t359.5 332t206.5 439t67 444.5zM1679 -61q-334 0 -613.5 102.5t-479.5 295t-307 461t-107 591.5
q0 329 115.5 601.5t323 464.5t483.5 294t594 102q299 0 576 -83t497.5 -255t349.5 -440t129 -623q0 -337 -113.5 -616.5t-325 -481t-498.5 -307.5t-624 -106z" />
    <glyph glyph-name="P" unicode="P" 
d="M684 1274v-1286q-38 2 -95.5 7t-84.5 5q-32 0 -93 -5t-87 -7v2801h733q402 0 630 -64.5t327.5 -209.5t99.5 -397q0 -183 -55.5 -321.5t-164 -236.5t-272 -166t-385.5 -112q-92 -20 -238 -20q-74 0 -183 6t-132 6zM684 2630v-1196q119 -9 188 -9q60 0 218 9
q304 31 475.5 209.5t171.5 453.5q0 145 -49.5 258.5t-153 184.5t-260.5 86q-86 8 -316 8q-213 0 -274 -4z" />
    <glyph glyph-name="Q" unicode="Q" horiz-adv-x="3412" 
d="M1688 2851q436 0 789 -163t558 -478.5t205 -751.5q0 -394 -145.5 -684t-387.5 -474.5t-544 -287.5q93 -69 327.5 -249.5t360.5 -275t229 -167.5q-235 -105 -319 -168q-32 48 -369 344.5t-557 454.5q-24 -3 -50.5 -7.5t-47.5 -4.5q-455 2 -811.5 171.5t-555 497.5
t-198.5 785q0 416 200 749.5t549 521t767 187.5zM2839 1417q0 285 -55 497t-204 400q-152 195 -377 298.5t-474 103.5q-384 0 -645.5 -189t-386 -501t-124.5 -687q0 -418 154 -704.5t408.5 -423.5t556.5 -137q334 0 562.5 149.5t355 371t178 443t51.5 379.5z" />
    <glyph glyph-name="R" unicode="R" horiz-adv-x="2503" 
d="M729 2638v-1127q7 0 74 -2t119 -2q204 0 335 25q235 49 380 201.5t145 384.5q0 444 -451 516q-65 12 -254 12q-57 -2 -177 -4q-121 -2 -171 -4zM369 -12v2801h868q312 0 514 -68.5t298.5 -207.5t96.5 -346q0 -330 -242 -522.5t-597 -255.5l843 -1070l197 -229l78 -102
q-46 2 -123 7t-115 5q-40 0 -118 -5t-115 -7q-149 210 -258 356l-484 627l-327 385h-156v-1368q-35 2 -94 7t-86 5q-32 0 -93 -5t-87 -7z" />
    <glyph glyph-name="S" unicode="S" horiz-adv-x="2048" 
d="M262 541h41q129 -211 283 -318.5t381 -107.5q162 0 292 81t203.5 218.5t73.5 298.5q0 253 -153.5 368t-476.5 243t-487.5 279.5t-164.5 460.5q0 254 122 432t328 266.5t459 88.5q160 0 319 -50t267 -147q-38 -83 -111 -336h-41q-65 168 -197 262.5t-310 94.5
q-218 0 -367.5 -133.5t-149.5 -346.5q0 -249 156 -366.5t480.5 -246t489.5 -273.5t165 -437q0 -284 -134.5 -496t-365.5 -324.5t-512 -112.5q-163 0 -365.5 65t-302.5 172q49 142 78 365z" />
    <glyph glyph-name="T" unicode="T" 
d="M1339 2593v-2613q-35 2 -93 7t-87 5q-30 0 -92 -5t-88 -7v2613q-421 0 -897 -49q2 21 7 62t5 60q0 20 -5 59t-7 64h2113q-1 -15 -4 -38.5t-5.5 -47t-2.5 -37.5t2 -37t5.5 -48t4.5 -37q-416 49 -856 49z" />
    <glyph glyph-name="U" unicode="U" horiz-adv-x="3187" 
d="M745 2789v-1568q0 -279 44.5 -480.5t148 -338.5t278.5 -206t435 -69q314 0 511 141.5t285 395t88 598.5v1527q28 -3 58 -7.5t57 -4.5q13 0 35 2.5t44 5.5t36 4v-1630q0 -397 -147 -671t-416 -411.5t-633 -137.5q-298 0 -512.5 70t-376.5 216q-121 110 -185 258.5
t-86 312.5t-24 355v1638q17 -1 53 -4.5t71 -5.5t56 -2q18 0 53.5 2.5t70 5.5t56.5 4z" />
    <glyph glyph-name="V" unicode="V" horiz-adv-x="2732" 
d="M1692 930l430 1110l245 684l29 65q37 -3 76.5 -7.5t75.5 -4.5q14 0 43.5 2.5t56.5 5.5t47 4q-47 -90 -209.5 -456.5t-381.5 -881t-379 -906t-214 -557.5q-14 2 -42 7t-39 5q-15 0 -45 -5l-42 -7q-163 339 -333 722t-389.5 894t-340.5 790t-182 395q19 -1 59 -4.5t78 -5.5
t60 -2t61 2.5t76 5.5t64 4q53 -127 151 -397l275 -717l503 -1241h37q19 41 105.5 220.5t124.5 275.5z" />
    <glyph glyph-name="W" unicode="W" horiz-adv-x="4096" 
d="M782 528l-733 2261q21 -1 59 -4.5t74.5 -5.5t59.5 -2q18 0 54.5 2.5t73.5 5.5t60 4q19 -59 123 -434l242 -831l344 -1082h37q686 1965 794 2347q12 -1 35.5 -4.5t47 -5.5t36.5 -2t35 2.5t44 5.5t36 4q29 -103 94.5 -306t191.5 -575t255.5 -756t236.5 -710h37
q76 195 164 467l479 1545l98 335q13 -1 41.5 -4t56.5 -5.5t45 -2.5q14 0 42.5 2.5t56 5.5t45.5 4q-119 -270 -205 -524l-782 -2277q-27 2 -70 7t-65 5q-24 0 -70 -5t-66 -7q-21 69 -96.5 304t-169.5 524.5t-225.5 696.5t-249.5 773h-33l-794 -2298q-30 2 -73.5 7t-62.5 5
q-25 0 -72 -5t-67 -7q-70 235 -97 326t-67 214z" />
    <glyph glyph-name="X" unicode="X" horiz-adv-x="2503" 
d="M643 713l455 684q-53 86 -110 180.5t-192.5 318t-168.5 275.5l-406 618q21 -1 65.5 -4.5t88.5 -5.5q43 -2 67 -2q22 0 65.5 2.5t85.5 5.5t71 4q93 -153 208 -352l435 -745q77 124 183 285t185.5 281t164.5 259.5t155 271.5q37 -3 76.5 -7.5t74.5 -4.5q32 0 72.5 4.5
t79.5 7.5q-35 -33 -70 -82l-626 -872l-201 -303l950 -1544q-43 2 -115.5 7t-109.5 5q-40 0 -117 -5t-108 -7q-330 645 -709 1245q-385 -582 -741 -1245q-30 2 -79 7t-73 5q-27 0 -77 -5t-75 -7q94 141 251.5 367.5t244.5 357.5z" />
    <glyph glyph-name="Y" unicode="Y" horiz-adv-x="2503" 
d="M1446 1245v-1257q-38 2 -95.5 7t-84.5 5q-32 0 -92 -5t-89 -7v1179l-1003 1622q21 -1 68 -4.5t91 -5.5q43 -2 70 -2q23 0 67 2.5t86 5.5t73 4q70 -139 238.5 -443t323 -570t216.5 -359q62 73 210.5 332t356 642.5t215.5 397.5q18 -1 48.5 -4.5t62 -5.5t49.5 -2
q16 0 47 2.5t61.5 5.5t51.5 4q-148 -189 -291 -409l-451 -725q-136 -209 -229 -410z" />
    <glyph glyph-name="Z" unicode="Z" horiz-adv-x="2503" 
d="M70 90l1192 1663q468 676 581 852v8l-467 -4q-171 0 -366.5 -10.5t-418 -27.5t-353.5 -27q2 21 7 62t5 60q0 20 -5 59t-7 64h2154v-77q-217 -282 -427 -564.5t-443 -610t-467 -672.5t-449 -677v-8h623q415 9 1147 66q-2 -25 -7.5 -60.5t-5.5 -62.5q0 -28 5.5 -66.5
t7.5 -56.5h-2306v90z" />
    <glyph glyph-name="bracketleft" unicode="[" horiz-adv-x="1364" 
d="M553 -475v3539h643v-119h-397v-3301h397v-119h-643z" />
    <glyph glyph-name="backslash" unicode="\" horiz-adv-x="2048" 
d="M389 3064l1524 -3064q-45 8 -131 8q-82 0 -123 -8l-1524 3064q90 -8 127 -8q45 0 127 8z" />
    <glyph glyph-name="bracketright" unicode="]" horiz-adv-x="1364" 
d="M811 3064v-3539h-643v119h397v3301h-397v119h643z" />
    <glyph glyph-name="asciicircum" unicode="^" horiz-adv-x="2482" 
d="M496 1126h-287l897 1663h270l893 -1663h-287l-741 1336z" />
    <glyph glyph-name="underscore" unicode="_" horiz-adv-x="2048" 
d="M2048 -655h-2048v155h2048v-155z" />
    <glyph glyph-name="grave" unicode="`" horiz-adv-x="1364" 
d="M983 2179h-143l-643 401q-91 71 -103 91q-12 30 -12 57q0 21 8 53q34 86 168 86q40 -15 53 -28q27 -19 156 -148z" />
    <glyph glyph-name="a" unicode="a" horiz-adv-x="2048" 
d="M1692 1282v-950q0 -115 18 -160t92 -45q54 0 119 16v-90q-81 -34 -123 -41q-67 -12 -131 -12q-259 7 -291 250l-37 -37q-258 -258 -606 -258q-226 0 -385.5 140.5t-159.5 359.5q0 217 101.5 335.5t256 167t400.5 86.5q183 31 268.5 55.5t125.5 73.5t40 146
q0 227 -125 353t-354 126q-198 0 -328 -94.5t-159 -187.5h-45v229q327 225 659 225q664 0 664 -688zM1364 410v598l-143 -29q-216 -41 -291 -57t-175.5 -62.5t-165.5 -131t-65 -216.5q0 -190 106 -287.5t296 -97.5q78 0 172.5 47.5t154.5 108.5q111 107 111 127z" />
    <glyph glyph-name="b" unicode="b" 
d="M0 0h266v3064q40 -3 83.5 -7.5t80.5 -4.5q18 0 49 2.5t61.5 5.5t53.5 4v-1516q286 422 709 422q272 0 459.5 -137t277.5 -355.5t90 -457.5q0 -277 -110.5 -522t-321.5 -394t-494 -149q-390 0 -581 291q-65 -49 -126 -105.5t-153 -140.5h-344zM1200 1798q-324 0 -469 -274
t-145 -688q0 -337 155 -543.5t418 -206.5q314 0 462 285t148 633q0 354 -141 572.5t-428 221.5z" />
    <glyph glyph-name="c" unicode="c" horiz-adv-x="2048" 
d="M1876 1802l-94 -270h-33q-81 110 -111 135q-68 78 -181 121t-224 43q-226 0 -385.5 -116.5t-239.5 -308.5t-80 -415q0 -258 93.5 -463.5t263 -319.5t389.5 -114q113 0 207.5 32.5t175 87.5t182.5 146l25 -12l-21 -188q-279 -205 -626 -205q-330 0 -568.5 132
t-359.5 362.5t-121 521.5q0 308 136 535t377.5 345.5t547.5 118.5q372 0 647 -168z" />
    <glyph glyph-name="d" unicode="d" 
d="M1995 3064v-3076q-36 2 -87.5 7t-76.5 5q-28 0 -84 -5t-80 -7v393q-249 -426 -704 -426q-235 0 -421 110.5t-292.5 334t-106.5 546.5q0 284 108.5 518t309.5 370t463 136q412 0 643 -397v1491q40 -3 83.5 -7.5t80.5 -4.5q18 0 49 2.5t61.5 5.5t53.5 4zM1667 1020
q0 308 -133.5 545t-419.5 237q-610 0 -610 -913q0 -197 54 -375t180 -295t327 -117q321 0 461.5 282t140.5 636z" />
    <glyph glyph-name="e" unicode="e" horiz-adv-x="2048" 
d="M1815 410l-5 -213q-336 -242 -704 -242q-282 0 -502 120.5t-342.5 348.5t-122.5 539q0 287 109 516.5t321 360t508 130.5q225 0 416 -101.5t305.5 -307.5t114.5 -504q0 -14 -2 -44t-2 -46q-418 12 -832 12h-577q-4 -29 -4 -86q0 -215 82.5 -389t244 -275.5t385.5 -101.5
q313 0 607 283zM500 1130h1089q-16 713 -512 713q-181 0 -307.5 -102t-191.5 -264.5t-78 -346.5z" />
    <glyph glyph-name="f" unicode="f" horiz-adv-x="1139" 
d="M360 -12v1802h-282q8 25 8 78t-8 78h282l9 32q26 194 79.5 376t153 345t257 264t374.5 101q-21 -107 -21 -328l-20 -16l-82 41q-56 20 -143 20q-344 0 -344 -426q0 -176 57 -409h418q-8 -50 -8 -78t8 -78h-410v-1802q-32 2 -84.5 7t-79.5 5q-29 0 -83 -5t-81 -7z" />
    <glyph glyph-name="g" unicode="g" horiz-adv-x="2048" 
d="M1032 20q-321 0 -478 -117.5t-157 -365.5q0 -241 162.5 -368t427.5 -127q256 0 451.5 129.5t195.5 394.5q0 198 -81 298t-206 128t-315 28zM1901 1958v-156l-451 37q283 -221 283 -541q0 -214 -116 -356.5t-314 -210t-443 -67.5q-144 0 -219.5 -38.5t-75.5 -158.5
t93 -158.5t300 -38.5h263q708 0 708 -544q0 -236 -129 -420.5t-365 -285.5t-546 -101q-180 0 -350.5 64t-281 200.5t-110.5 337.5q0 420 426 495v33q-249 44 -249 332q0 135 73 214.5t209 137.5q-196 92 -296.5 231t-100.5 355q0 308 194 479.5t633 171.5l570 -20
q36 -4 114 -4q88 0 181 12zM520 1323q0 -155 52.5 -283t153.5 -201t241 -73q145 0 247 74t154.5 196.5t52.5 266.5q0 256 -103.5 406.5t-334.5 150.5q-217 0 -340 -149t-123 -388z" />
    <glyph glyph-name="h" unicode="h" 
d="M315 -12v3076q41 -3 83.5 -7.5t80.5 -4.5q18 0 49 2.5t63 5.5t52 4v-1491q227 397 660 397q347 0 503 -200t156 -599v-1183q-32 2 -85.5 7t-78.5 5q-29 0 -83 -5t-81 -7v1089q0 234 -42 383t-142 223t-270 74q-537 0 -537 -655v-1114q-32 2 -85.5 7t-78.5 5q-29 0 -83 -5
t-81 -7z" />
    <glyph glyph-name="i" unicode="i" horiz-adv-x="1139" 
d="M733 1946v-1958q-32 2 -84.5 7t-79.5 5q-29 0 -84 -5t-79 -7v1958q24 -2 74.5 -7.5t88.5 -5.5q36 0 83.5 5.5t80.5 7.5zM778 2646q0 -87 -63 -148t-146 -61q-84 0 -146.5 61.5t-62.5 147.5t61.5 147.5t147.5 61.5q85 0 147 -61t62 -148z" />
    <glyph glyph-name="j" unicode="j" horiz-adv-x="1139" 
d="M430 -16v1962q24 -2 75.5 -7.5t88.5 -5.5q34 0 81 5.5t83 7.5v-1979q0 -293 -50 -500.5t-208 -363.5q-210 -184 -471 -184l-29 131l37 -8q114 0 180.5 68.5t118.5 189.5q94 233 94 684zM803 2646q0 -87 -63 -148t-146 -61q-85 0 -147 62t-62 147t61 147t148 62
q85 0 147 -61t62 -148z" />
    <glyph glyph-name="k" unicode="k" horiz-adv-x="2048" 
d="M651 3064v-1835q0 -123 21 -135q115 0 356 241l254 258l320 353q24 -2 74.5 -7.5t88.5 -5.5q33 0 79 5.5t81 7.5v-29q-14 -13 -233 -199.5t-367.5 -317t-300.5 -274.5q120 -138 337.5 -392.5t350.5 -409.5t275 -316v-20q-43 2 -107 7t-94 5q-38 0 -105 -5t-100 -7
q-170 222 -782 921q-60 66 -94 66q-54 0 -54 -152v-835q-32 2 -84.5 7t-79.5 5q-29 0 -84 -5t-79 -7v3076q40 -3 82.5 -7.5t80.5 -4.5q17 0 49 2.5t62.5 5.5t52.5 4z" />
    <glyph glyph-name="l" unicode="l" horiz-adv-x="1139" 
d="M406 -12v3076q40 -3 82.5 -7.5t80.5 -4.5q17 0 49 2.5t62.5 5.5t52.5 4v-3076q-32 2 -84.5 7t-79.5 5q-29 0 -84 -5t-79 -7z" />
    <glyph glyph-name="m" unicode="m" horiz-adv-x="3412" 
d="M291 -12v1958q24 -2 74.5 -7.5t89.5 -5.5q34 0 81 5.5t82 7.5v-353q219 377 607 377q205 0 370.5 -107.5t227.5 -297.5q240 405 643 405q360 0 509.5 -199t149.5 -600v-1183q-32 2 -84.5 7t-79.5 5q-29 0 -84 -5t-79 -7v1089q0 328 -91 504t-364 176
q-278 0 -374.5 -188.5t-96.5 -474.5v-1106q-36 2 -87.5 7t-76.5 5q-28 0 -84 -5t-80 -7v1200q0 291 -104.5 430t-329.5 139q-289 0 -390.5 -155.5t-101.5 -421.5v-1192q-35 2 -86.5 7t-76.5 5q-30 0 -85 -5t-79 -7z" />
    <glyph glyph-name="n" unicode="n" 
d="M315 -12v1958q27 -2 76.5 -7.5t87.5 -5.5q34 0 82.5 5.5t81.5 7.5v-373q227 397 660 397q351 0 505 -193.5t154 -605.5v-1183q-32 2 -85.5 7t-78.5 5q-29 0 -83 -5t-81 -7v1089q0 330 -94 505t-360 175q-304 0 -420.5 -205t-116.5 -614v-950q-32 2 -85.5 7t-78.5 5
q-29 0 -83 -5t-81 -7z" />
    <glyph glyph-name="o" unicode="o" 
d="M143 983q0 289 136 514t375 349t530 124q279 0 495 -123t335.5 -349.5t119.5 -526.5q0 -197 -65.5 -380t-197 -327.5t-323.5 -226.5t-438 -82q-198 0 -375.5 70t-309.5 203t-207 325t-75 430zM1180 1843q-244 0 -396 -133t-216 -341t-64 -447q0 -345 158 -592.5
t481 -247.5q221 0 363 150.5t205 362t63 396.5q0 209 -58 402.5t-191 321.5t-345 128z" />
    <glyph glyph-name="p" unicode="p" 
d="M598 913q0 -348 152 -567t450 -219q196 0 322.5 119t182.5 318.5t56 451.5q0 348 -130.5 581.5t-434.5 233.5q-321 0 -459.5 -280.5t-138.5 -637.5zM598 348v-1409q-32 2 -85.5 7t-78.5 5q-29 0 -83 -5t-81 -7v3007q27 -2 76.5 -7.5t87.5 -5.5q34 0 82.5 5.5t81.5 7.5
v-414h8q59 119 122 205t204.5 159.5t365.5 73.5q254 0 441.5 -129t285 -344.5t97.5 -464.5q0 -329 -111.5 -574t-312.5 -374t-461 -129q-422 0 -631 393h-8z" />
    <glyph glyph-name="q" unicode="q" 
d="M1667 918q-2 245 -69.5 453.5t-201.5 334t-323 125.5q-565 0 -565 -807q0 -897 610 -897q174 0 297.5 110.5t186.5 291.5t65 389zM1667 1524v422q24 -2 75.5 -7.5t88.5 -5.5q34 0 81 5.5t83 7.5v-3007q-36 2 -87.5 7t-76.5 5q-28 0 -84 -5t-80 -7v1401h-8
q-190 -385 -631 -385q-279 0 -478.5 137t-301 369t-101.5 506q0 283 95 512.5t280.5 360t444.5 130.5q290 0 462.5 -146t229.5 -300h8z" />
    <glyph glyph-name="r" unicode="r" horiz-adv-x="1364" 
d="M324 -12v1958q24 -2 74.5 -7.5t88.5 -5.5q36 0 83.5 5.5t80.5 7.5v-410l21 49q244 385 516 385q81 0 127 -20l-58 -344q-16 4 -82.5 34.5t-109.5 30.5q-172 0 -262 -102q-99 -113 -125.5 -220.5t-26.5 -299.5v-1061q-32 2 -84.5 7t-79.5 5q-29 0 -84 -5t-79 -7z" />
    <glyph glyph-name="s" unicode="s" horiz-adv-x="1593" 
d="M258 385h33q78 -128 206 -215.5t265 -87.5q100 0 193 48t150.5 134.5t57.5 190.5q0 184 -113 252.5t-358.5 138.5t-370 174t-124.5 344q0 284 189 445t478 161q147 0 273 -33t190 -73q-62 -143 -98 -291h-37q-40 105 -140.5 187.5t-207.5 82.5q-161 0 -267 -89.5
t-106 -250.5q0 -173 114 -245.5t358.5 -151.5t369.5 -181t125 -323q0 -209 -109.5 -355t-282.5 -219t-362 -73q-294 0 -512 131q73 217 86 299z" />
    <glyph glyph-name="t" unicode="t" horiz-adv-x="1139" 
d="M295 2351l328 127v-532h434q-8 -58 -8 -82q0 -34 8 -74h-434v-1028v-148q0 -232 58.5 -374t244.5 -142q37 0 184 29v-98q-200 -74 -344 -74q-158 0 -260 55.5t-156.5 196t-54.5 391.5v1192h-254q8 29 8 78q0 53 -8 78h254v405z" />
    <glyph glyph-name="u" unicode="u" 
d="M1937 1946v-1958q-35 2 -86.5 7t-76.5 5q-30 0 -85 -5t-79 -7v352q-96 -186 -266 -285.5t-386 -99.5q-343 0 -509 188t-166 598v1205q24 -2 74.5 -7.5t88.5 -5.5q36 0 83.5 5.5t80.5 7.5v-1106q0 -338 115.5 -511t380.5 -173q282 0 393 193t111 466v1131q24 -2 74.5 -7.5
t89.5 -5.5q34 0 81 5.5t82 7.5z" />
    <glyph glyph-name="v" unicode="v" horiz-adv-x="2048" 
d="M1380 1061l328 885q18 -2 59.5 -7.5t71.5 -5.5q26 0 64 5.5t67 7.5q-89 -185 -214.5 -461t-238.5 -536.5t-212 -506.5t-170 -454q-27 2 -66.5 7t-56.5 5q-23 0 -66 -5t-61 -7q-85 229 -231 594.5t-305 745.5t-267 618q22 -1 81.5 -7t102.5 -6q38 0 89.5 5.5t90.5 7.5
q188 -623 611 -1577q13 19 40.5 56t37.5 58z" />
    <glyph glyph-name="w" unicode="w" horiz-adv-x="3187" 
d="M3121 1946q-93 -187 -237.5 -505t-310.5 -724.5t-275 -728.5q-26 2 -61 7t-50 5q-19 0 -55 -5t-55 -7q-57 209 -144 477t-182 535.5t-178 474.5q-67 -130 -159.5 -359.5t-194 -515.5t-203.5 -612q-22 2 -57.5 7t-53.5 5q-19 0 -57 -5t-53 -7q-109 336 -238 699.5
t-250.5 677.5t-236.5 581q26 -2 82 -7.5t98 -5.5q37 0 89 5.5t91 7.5q66 -233 153.5 -505.5t176 -519.5t190.5 -495q124 266 298 729t276 791q12 -1 46.5 -7t59.5 -6q21 0 51.5 5.5t55.5 7.5q80 -313 236 -767.5t288 -756.5q497 1182 602 1524q14 -1 56 -7t75 -6
q26 0 62 5.5t65 7.5z" />
    <glyph glyph-name="x" unicode="x" horiz-adv-x="2048" 
d="M864 954l-745 992q29 -2 94.5 -7.5t114.5 -5.5q44 0 106 5.5t103 7.5q90 -159 251.5 -390.5t276.5 -371.5l229 295l344 467q20 -2 64 -7.5t76 -5.5t73.5 5.5t69.5 7.5q-393 -419 -762 -881l766 -1036v-41q-42 2 -102.5 7t-89.5 5q-34 0 -98 -5t-95 -7q-254 423 -577 843
q-378 -498 -590 -843q-25 2 -64 7t-59 5q-23 0 -64 -5t-59 -7v41q507 632 737 925z" />
    <glyph glyph-name="y" unicode="y" horiz-adv-x="2048" 
d="M934 4l-828 1942q31 -2 90.5 -7.5t106.5 -5.5q40 0 95.5 5.5t97.5 7.5q230 -713 610 -1520q85 175 198.5 445.5t216.5 539t199 535.5q20 -2 61.5 -7.5t73.5 -5.5q26 0 64 5.5t68 7.5q-157 -349 -387.5 -856.5t-364.5 -807t-285 -653.5t-286 -690q-31 2 -75 7t-65 5
q-25 0 -72 -5t-67 -7q454 886 549 1065z" />
    <glyph glyph-name="z" unicode="z" horiz-adv-x="2048" 
d="M1868 1888l-1274 -1724v-12q374 0 1245 61q-1 -14 -4 -34t-5.5 -41t-2.5 -32q0 -12 2 -32.5t5.5 -42.5t4.5 -31h-1749v37q197 242 430.5 547.5t440.5 584.5t436 596v13q-162 0 -336 -8.5t-351.5 -21.5t-410.5 -32q12 87 12 103q0 14 -5 47.5t-7 58.5h1569v-37z" />
    <glyph glyph-name="braceleft" unicode="{" horiz-adv-x="1364" 
d="M844 717v-680q0 -221 77 -347t263 -165q-246 0 -382 53.5t-194.5 185t-58.5 375.5v668q0 223 -58.5 325t-252.5 158q127 38 193 95.5t92 145.5t26 230v729q0 239 71 364t206 167.5t358 42.5q-193 -48 -266.5 -168.5t-73.5 -347.5v-725q0 -240 -65.5 -360.5t-266.5 -172.5
q140 -37 213 -111.5t96 -182t23 -279.5z" />
    <glyph glyph-name="bar" unicode="|" horiz-adv-x="1364" 
d="M0 0h549v3064h262v-3064h-811z" />
    <glyph glyph-name="braceright" unicode="}" horiz-adv-x="1364" 
d="M520 33v684q0 255 63.5 385t268.5 184q-199 52 -265.5 173t-66.5 364v725q0 226 -73.5 345.5t-266.5 170.5q224 0 358.5 -43t205.5 -169t71 -366v-729q0 -207 64 -312.5t247 -158.5q-193 -53 -252 -154.5t-59 -324.5v-668q0 -246 -58.5 -377t-194.5 -184t-382 -53
q186 39 263 163t77 345z" />
    <glyph glyph-name="asciitilde" unicode="~" horiz-adv-x="2482" 
d="M2130 1389l143 -164q-100 -189 -247 -318t-330 -129q-65 0 -161.5 29t-206 74t-185.5 77q-148 62 -212.5 84.5t-144.5 22.5q-146 0 -234.5 -95t-199.5 -282l-143 164q77 138 155.5 240t185.5 168.5t241 66.5q96 0 214 -40t286 -114t253 -105.5t156 -31.5q129 0 245 107
t185 246z" />
    <glyph glyph-name="udieresis" unicode="&#x2026;" horiz-adv-x="4096" 
d="M438 201q0 100 75 172.5t175 72.5q99 0 170.5 -73.5t71.5 -171.5q0 -100 -72 -173t-170 -73q-101 0 -175.5 73t-74.5 173zM1802 201q0 100 75 172.5t175 72.5q99 0 170.5 -73.5t71.5 -171.5q0 -100 -72 -173t-170 -73q-101 0 -175.5 73t-74.5 173zM3166 201
q0 100 75 172.5t175 72.5q99 0 170.5 -73.5t71.5 -171.5q0 -100 -72 -173t-170 -73q-101 0 -175.5 73t-74.5 173z" />
    <glyph glyph-name="degree" unicode="&#x2020;" horiz-adv-x="2048" 
d="M881 -12v1630q-179 0 -713 -21q2 20 7 65t5 71q0 19 -5 60.5t-7 70.5q574 -21 713 -21v946q13 -1 41.5 -4t56.5 -5.5t45 -2.5q15 0 42.5 2.5t55 5.5t45.5 4v-946q169 0 713 21q-1 -20 -4 -43t-5.5 -49t-2.5 -39q0 -17 2 -42.5t5.5 -53t4.5 -40.5q-544 21 -713 21v-1630
q-31 2 -76.5 7t-66.5 5q-25 0 -74 -5t-69 -7z" />
    <glyph glyph-name="ecircumflex" 
d="M643 520q124 134 268 300.5t297.5 355.5t306 388t283.5 382h164v-1958q-28 2 -83 7t-81 5q-29 0 -83 -5t-81 -7v1425q-225 -253 -420 -483t-390.5 -477.5t-344.5 -464.5h-164v1958q50 -13 164 -13q107 0 164 13v-1426z" />
    <glyph glyph-name="edieresis" unicode="&#x2018;" horiz-adv-x="1139" 
d="M926 2822l-287 -909q-32 -103 -71 -168.5t-117 -65.5q-67 0 -117.5 42.5t-50.5 109.5q0 58 17.5 92t72.5 125l483 803z" />
    <glyph glyph-name="iacute" unicode="&#x2019;" horiz-adv-x="1139" 
d="M213 1708l287 909q34 108 72.5 171t115.5 63q69 0 118.5 -41.5t49.5 -110.5q0 -58 -22 -101t-68 -116l-483 -803z" />
    <glyph glyph-name="Oslash" unicode="&#x201c;" horiz-adv-x="1819" 
d="M1606 2822l-287 -909q-32 -103 -71 -168.5t-118 -65.5q-67 0 -117 42t-50 110q0 58 17.5 92t72.5 125l483 803zM909 2822l-286 -909q-32 -103 -71 -168.5t-118 -65.5q-67 0 -117.5 42.5t-50.5 109.5q0 58 17.5 92t72.5 125l484 803z" />
    <glyph glyph-name="oslash" unicode="&#x201d;" horiz-adv-x="1819" 
d="M213 1708l287 909q34 108 72.5 171t115.5 63q69 0 118.5 -41.5t49.5 -110.5q0 -58 -22 -101t-68 -116l-483 -803zM909 1708l287 909q38 113 74 173.5t114 60.5q69 0 118.5 -41.5t49.5 -110.5q0 -58 -22 -101t-68 -116l-483 -803z" />
    <glyph glyph-name="notequal" unicode="&#x2013;" horiz-adv-x="2048" 
d="M2068 807h-2068v197h2068v-197z" />
    <glyph glyph-name="registered" unicode="&#x2014;" horiz-adv-x="4096" 
d="M0 807v197h4096v-197h-4096z" />
    <glyph glyph-name="trademark" unicode="&#x2122;" horiz-adv-x="3891" 
d="M3437 2789h49q124 -1149 200 -1663q-26 2 -58 7.5t-56 5.5q-27 0 -63 -5.5t-52 -7.5q-80 951 -127 1254q-165 -298 -273 -498t-200.5 -385t-161.5 -342h-24l-136 275q-54 115 -116.5 236t-114.5 220t-125 237.5t-135 256.5q-112 -996 -119 -1254q-24 3 -42.5 6.5
t-43.5 6.5q-20 0 -45.5 -5.5t-40.5 -7.5q35 221 87.5 580.5t94 661.5t52.5 421h61q272 -528 394 -757.5t294 -515.5q92 162 230.5 416.5t248 456.5t222.5 400zM950 2675v-1549q-21 2 -52 7.5t-54 5.5q-25 0 -59 -5.5t-48 -7.5v1549q-196 0 -532 -29v143h1253v-143
q-297 29 -508 29z" />
    <glyph glyph-name="nonbreakingspace" unicode="&#xa0;" 
 />
    <glyph glyph-name="section" unicode="&#xa4;" 
d="M131 578l221 221q-229 292 -229 622q0 373 217 623l-221 225l180 180l221 -225q269 221 631 221q342 0 606 -217l217 217l176 -176l-217 -217q226 -267 226 -622q0 -354 -234 -627l217 -221l-176 -176l-217 217q-256 -213 -602 -213q-357 0 -619 213l-217 -217z
M1151 2195q-212 0 -391 -102t-283 -279.5t-104 -392.5q0 -211 104.5 -386t283 -275.5t386.5 -100.5q207 0 383 105t277.5 283t101.5 383q0 154 -59 293.5t-163 245t-243.5 166t-292.5 60.5z" />
    <glyph glyph-name="bullet" unicode="&#xa5;" 
d="M659 1749l-606 1061q53 -3 109 -7.5t104 -4.5q23 0 64 2.5t82 5.5t67 4q59 -136 218.5 -452.5t302 -582.5t200.5 -358q57 72 203.5 346t297 576.5t228.5 470.5q16 -1 44.5 -4.5t56.5 -5.5t47 -2q16 0 44 2t57.5 5.5t45.5 4.5q-58 -93 -146.5 -233.5t-123.5 -196.5
l-361 -631h422v-201h-536q-39 -71 -71 -132t-57 -113t-28 -58v-147h692v-201h-692v-909q-33 2 -88 7t-80 5q-28 0 -86 -5t-82 -7v909h-749v201h749v69l-221 381h-528v201h421z" />
    <glyph glyph-name="paragraph" unicode="&#xa6;" horiz-adv-x="1364" 
d="M0 0h549v1147h262v-1147h-811zM549 3064h262v-1147h-262v1147z" />
    <glyph glyph-name="germandbls" unicode="&#xa7;" horiz-adv-x="2048" 
d="M1135 537l-217 94q-222 94 -353.5 169t-223 203t-91.5 324q0 274 274 492q-110 197 -110 352q0 202 94.5 357.5t259 239t367.5 83.5q331 0 548 -230q-75 -92 -122 -237h-37q-59 150 -174 241t-248 91q-192 0 -311 -90q-72 -54 -118 -139t-46 -173q0 -263 295 -393
l512 -225q360 -164 360 -520q0 -269 -233 -525q155 -167 155 -327q0 -241 -114.5 -425t-311 -285t-434.5 -101q-278 0 -577 168q49 199 49 348h37q205 -369 618 -369q136 0 256 73.5t192 182t72 199.5q0 167 -92 255t-276 167zM971 963l303 -127l225 -123q115 182 115 295
q0 248 -340 401l-426 193q-205 91 -258 155q-156 -141 -156 -295q0 -115 66 -200q76 -96 181 -156.5t290 -142.5z" />
    <glyph glyph-name="exclamdown" unicode="&#xa8;" horiz-adv-x="2048" 
d="M725 2597v-1028h635q74 0 205 9.5t159 10.5q-1 -9 -4.5 -31t-5.5 -42.5t-2 -32.5q0 -10 2.5 -33t5.5 -44t4 -38q-59 2 -174.5 11.5t-189.5 9.5h-635v-1196q251 0 741 16q189 6 377 37q-1 -15 -4 -38.5t-5.5 -47t-2.5 -37.5q0 -28 4.5 -60t7.5 -63h-1478v2789h1454
q-2 -25 -7.5 -60.5t-5.5 -62.5q0 -26 5.5 -63.5t7.5 -58.5q-148 29 -369 45l-410 8h-315zM1544 3101q-72 0 -130 58t-58 130q0 73 56 131t132 58q77 0 133 -57t56 -132q0 -73 -58.5 -130.5t-130.5 -57.5zM741 3101q-72 0 -130 58t-58 130q0 73 56 131t132 58q77 0 133 -56
t56 -133t-57.5 -132.5t-131.5 -55.5z" />
    <glyph glyph-name="copyright" unicode="&#xa9;" horiz-adv-x="3072" 
d="M1532 -61q-393 0 -727 195.5t-528.5 530t-194.5 728.5q0 393 194.5 729t528 532.5t727.5 196.5q395 0 732 -195.5t533.5 -531t196.5 -731.5q0 -393 -196.5 -728.5t-533.5 -530.5t-732 -195zM1532 143q331 0 616 170.5t453 459.5t168 620q0 250 -95.5 478t-268 403.5
t-398.5 273.5t-475 98q-330 0 -612.5 -171.5t-447.5 -461t-165 -620.5q0 -332 165.5 -620.5t448 -459t611.5 -170.5zM2101 868l-24 -155q-201 -131 -537 -131q-265 0 -459 100t-297.5 286t-103.5 433q0 249 120.5 432.5t329.5 279t467 95.5q274 0 525 -107q-29 -67 -49 -188
h-17q-36 53 -168.5 112.5t-298.5 59.5q-194 0 -337 -90.5t-218.5 -248.5t-75.5 -353q0 -212 82 -369t222.5 -238t310.5 -81q165 0 283 46t245 117z" />
    <glyph glyph-name="acute" unicode="&#xab;" horiz-adv-x="2048" 
d="M889 139l-492 779l516 757q66 -80 152 -106l-459 -647l438 -676q-98 -32 -155 -107zM1475 139l-492 779l516 757q66 -80 152 -106l-459 -647l438 -676q-98 -32 -155 -107z" />
    <glyph glyph-name="dieresis" unicode="&#xac;" horiz-adv-x="2482" 
d="M2011 463v844h-1802v262h2064v-1106h-262z" />
    <glyph glyph-name="AE" unicode="&#xae;" horiz-adv-x="3072" 
d="M1540 -61q-395 0 -732 195.5t-533.5 531t-196.5 731.5q0 393 196.5 728.5t533.5 530.5t732 195q393 0 727 -195.5t528.5 -530t194.5 -728.5q0 -397 -194 -731.5t-528.5 -530.5t-727.5 -196zM1540 143q331 0 613 171t447 460.5t165 622.5q0 331 -165.5 620t-447.5 459
t-612 170t-615.5 -170.5t-453.5 -459t-168 -619.5q0 -333 167.5 -622.5t453 -460.5t616.5 -171zM1212 1376v-762q-18 2 -51 7.5t-55 5.5q-25 0 -59 -5.5t-48 -7.5v1565h517q540 0 540 -348q0 -124 -70.5 -215t-183.5 -143.5t-246 -75.5l504 -598l115 -127l45 -58
q-27 2 -68 7.5t-71 5.5q-31 0 -75 -5.5t-64 -7.5q-40 52 -86 113.5t-66 87.5l-291 348l-192 213h-95zM1212 2056v-557h267q167 0 265.5 84.5t98.5 218.5q0 242 -274 254h-357z" />
    <glyph glyph-name="infinity" unicode="&#xb0;" horiz-adv-x="1638" 
d="M1434 2126q0 -166 -83.5 -308t-225 -224.5t-306.5 -82.5q-168 0 -308.5 82.5t-223 223.5t-82.5 309q0 166 82.5 307t224 224t307.5 83q164 0 306 -83t225.5 -225t83.5 -306zM1270 2126q0 120 -61.5 224t-165.5 165t-228 61q-184 0 -315 -132t-131 -318
q0 -188 131.5 -319.5t318.5 -131.5q122 0 225 60.5t164.5 164.5t61.5 226z" />
    <glyph glyph-name="plusminus" unicode="&#xb1;" horiz-adv-x="2482" 
d="M1110 1417v651h262v-651h901v-262h-901v-663h-262v663h-901v262h901zM2273 0h-2064v262h2064v-262z" />
    <glyph glyph-name="yen" unicode="&#xb4;" horiz-adv-x="1364" 
d="M1167 2580l-643 -401h-139l512 512q19 19 52.5 51.5t49.5 50.5q16 10 36.5 29t37 30t37.5 15q136 0 164 -86q12 -24 12 -61q0 -33 -16 -49q-9 -19 -25 -34.5t-40 -31.5t-38 -25z" />
    <glyph glyph-name="mu" unicode="&#xb5;" 
d="M1610 815v1131q24 -2 74.5 -7.5t89.5 -5.5q34 0 81 5.5t82 7.5v-1958q-35 2 -86.5 7t-76.5 5q-30 0 -85 -5t-79 -7v352h-8q-90 -185 -258.5 -285t-385.5 -100q-199 0 -348 111v-1127q-32 2 -84.5 7t-79.5 5q-29 0 -84 -5t-79 -7v3007q24 -2 74.5 -7.5t88.5 -5.5
q36 0 83.5 5.5t80.5 7.5v-1106q0 -338 115.5 -511t380.5 -173q282 0 393 193t111 466z" />
    <glyph glyph-name="partialdiff" unicode="&#xb6;" horiz-adv-x="3277" 
d="M2036 2658h-361v-3076q-23 2 -65 7t-62 5q-23 0 -67 -5t-64 -7v1745l-147 -12q-363 0 -579 192t-216 557q0 200 82.5 373.5t245.5 257.5q184 94 581 94h132h778v-3207q-23 2 -65 7t-62 5q-23 0 -67 -5t-64 -7v3076zM1028 2179v-266q0 -479 332 -479l57 4v1220
q-235 0 -312 -118.5t-77 -360.5z" />
    <glyph glyph-name="summation" unicode="&#xb7;" horiz-adv-x="1139" 
d="M324 942q0 99 75 172.5t174 73.5t170.5 -73.5t71.5 -172.5q0 -101 -71.5 -173.5t-170.5 -72.5q-101 0 -175 73t-74 173z" />
    <glyph glyph-name="guillemotleft" unicode="&#xb8;" horiz-adv-x="2048" 
d="M1425 2257q-72 0 -130 58t-58 130q0 74 55.5 131.5t132.5 57.5q78 0 133.5 -56.5t55.5 -132.5q0 -74 -58 -131t-131 -57zM623 2257q-73 0 -131 58t-58 130q0 74 55.5 131.5t133.5 57.5t133 -55t55 -134q0 -77 -57.5 -132.5t-130.5 -55.5zM1815 410l-5 -213
q-336 -242 -704 -242q-282 0 -502 120.5t-342.5 348.5t-122.5 539q0 287 109 516.5t321 360t508 130.5q225 0 416 -101.5t305.5 -307.5t114.5 -504q0 -14 -2 -44t-2 -46q-418 12 -832 12h-577q-4 -29 -4 -86q0 -215 82.5 -389t244 -275.5t385.5 -101.5q313 0 607 283z
M500 1130h1089q-16 713 -512 713q-181 0 -307.5 -102t-191.5 -264.5t-78 -346.5z" />
    <glyph glyph-name="integral" unicode="&#xb9;" horiz-adv-x="1393" 
d="M49 2261q0 171 88.5 306t243 209.5t344.5 74.5q287 0 463 -180q155 -160 155 -418q0 -177 -94 -332q-185 -279 -569 -279q-138 0 -274 54q-114 46 -205 139q-152 157 -152 426zM725 2777q-233 0 -337.5 -163.5t-104.5 -389.5q0 -208 103 -358t314 -150q145 0 236.5 91
t132.5 218.5t41 239.5q0 202 -92 357t-293 155zM102 1405h1188v-123h-1188v123z" />
    <glyph glyph-name="ordfeminine" unicode="&#xbb;" horiz-adv-x="2048" 
d="M1159 1675l492 -778l-516 -758q-65 79 -152 107l459 647l-438 676q96 29 155 106zM573 1675l492 -778l-516 -758q-65 79 -152 107l459 647l-438 676q96 29 155 106z" />
    <glyph glyph-name="oe" unicode="&#xc0;" horiz-adv-x="2654" 
d="M1397 2851l1229 -2863q-41 2 -110.5 7t-102.5 5q-40 0 -113 -5t-105 -7q-52 151 -126.5 351.5t-149.5 386.5t-154 368h-1040q-308 -776 -406 -1106q-33 2 -80.5 7t-70.5 5q-28 0 -77.5 -5.5t-65.5 -6.5l1278 2863h94zM1704 1266l-455 1048l-446 -1048h901z" />
    <glyph glyph-name="oe" unicode="&#x410;" horiz-adv-x="2654" 
d="M1397 2851l1229 -2863q-41 2 -110.5 7t-102.5 5q-40 0 -113 -5t-105 -7q-52 151 -126.5 351.5t-149.5 386.5t-154 368h-1040q-308 -776 -406 -1106q-33 2 -80.5 7t-70.5 5q-28 0 -77.5 -5.5t-65.5 -6.5l1278 2863h94zM1704 1266l-455 1048l-446 -1048h901z" />
    <glyph glyph-name="Delta" unicode="&#xc1;" horiz-adv-x="2429" 
d="M733 1405v-1237h410q199 0 356 89t242.5 240t85.5 334q0 221 -134 385.5t-366 184.5q-70 8 -250 8q-75 0 -195 -2t-149 -2zM373 0v2789h1659q-13 -45 -13 -123q0 -70 13 -122q-231 45 -369 45l-492 8h-438v-1032h377q591 0 844.5 -168.5t253.5 -544.5
q0 -244 -113.5 -430.5t-320.5 -293.5t-484 -124q-184 -4 -917 -4z" />
    <glyph glyph-name="Delta" unicode="&#x411;" horiz-adv-x="2429" 
d="M733 1405v-1237h410q199 0 356 89t242.5 240t85.5 334q0 221 -134 385.5t-366 184.5q-70 8 -250 8q-75 0 -195 -2t-149 -2zM373 0v2789h1659q-13 -45 -13 -123q0 -70 13 -122q-231 45 -369 45l-492 8h-438v-1032h377q591 0 844.5 -168.5t253.5 -544.5
q0 -244 -113.5 -430.5t-320.5 -293.5t-484 -124q-184 -4 -917 -4z" />
    <glyph glyph-name="Otilde" unicode="&#xc2;" horiz-adv-x="2429" 
d="M729 2638v-1077h148q371 0 557 81q153 69 234 199t81 297q0 279 -175.5 389.5t-520.5 110.5h-324zM729 1401v-1249h410q198 0 355 80.5t245 226t88 327.5q0 341 -220.5 478t-627.5 137h-250zM975 0h-606v2789h823q308 0 509 -54.5t302.5 -179t101.5 -331.5
q0 -277 -181 -465.5t-466 -259.5q298 -19 524 -170.5t226 -472.5q0 -438 -369 -692q-161 -109 -364 -136.5t-500 -27.5z" />
    <glyph glyph-name="Otilde" unicode="&#x412;" horiz-adv-x="2429" 
d="M729 2638v-1077h148q371 0 557 81q153 69 234 199t81 297q0 279 -175.5 389.5t-520.5 110.5h-324zM729 1401v-1249h410q198 0 355 80.5t245 226t88 327.5q0 341 -220.5 478t-627.5 137h-250zM975 0h-606v2789h823q308 0 509 -54.5t302.5 -179t101.5 -331.5
q0 -277 -181 -465.5t-466 -259.5q298 -19 524 -170.5t226 -472.5q0 -438 -369 -692q-161 -109 -364 -136.5t-500 -27.5z" />
    <glyph glyph-name="fi" unicode="&#xc3;" horiz-adv-x="1970" 
d="M369 -8v2797h1454q-2 -25 -7.5 -60.5t-5.5 -62.5q0 -26 5.5 -63.5t7.5 -58.5q-148 29 -369 45l-410 8h-315v-2605q-130 8 -180 8q-66 0 -180 -8z" />
    <glyph glyph-name="fi" unicode="&#x413;" horiz-adv-x="1970" 
d="M369 -8v2797h1454q-2 -25 -7.5 -60.5t-5.5 -62.5q0 -26 5.5 -63.5t7.5 -58.5q-148 29 -369 45l-410 8h-315v-2605q-130 8 -180 8q-66 0 -180 -8z" />
    <glyph glyph-name="quoteright" unicode="&#xc4;" horiz-adv-x="2732" 
d="M-12 197h176q129 283 376 843t463 1067t279 682h197q53 -128 166.5 -401.5t329.5 -791t367 -876.5t222 -523h176q-12 -67 -12 -164q0 -137 12 -205h-37q-54 81 -155.5 118.5t-242.5 45.5t-421 8h-999q-280 0 -425 -8t-257.5 -45.5t-186.5 -118.5h-28q12 61 12 205
q0 29 -12 164zM426 197h1753q-37 92 -192 478.5t-287 714t-238.5 591.5t-146.5 362h-17q-190 -419 -320.5 -723t-277 -678.5t-274.5 -744.5z" />
    <glyph glyph-name="quoteright" unicode="&#x414;" horiz-adv-x="2732" 
d="M-12 197h176q129 283 376 843t463 1067t279 682h197q53 -128 166.5 -401.5t329.5 -791t367 -876.5t222 -523h176q-12 -67 -12 -164q0 -137 12 -205h-37q-54 81 -155.5 118.5t-242.5 45.5t-421 8h-999q-280 0 -425 -8t-257.5 -45.5t-186.5 -118.5h-28q12 61 12 205
q0 29 -12 164zM426 197h1753q-37 92 -192 478.5t-287 714t-238.5 591.5t-146.5 362h-17q-190 -419 -320.5 -723t-277 -678.5t-274.5 -744.5z" />
    <glyph glyph-name="guilsinglright" unicode="&#xc5;" horiz-adv-x="2048" 
d="M725 2597v-1028h635q74 0 205 9.5t159 10.5q-1 -9 -4.5 -31t-5.5 -42.5t-2 -32.5q0 -10 2.5 -33t5.5 -44t4 -38q-59 2 -174.5 11.5t-189.5 9.5h-635v-1196q251 0 741 16q189 6 377 37q-1 -15 -4 -38.5t-5.5 -47t-2.5 -37.5q0 -28 4.5 -60t7.5 -63h-1478v2789h1454
q-2 -25 -7.5 -60.5t-5.5 -62.5q0 -26 5.5 -63.5t7.5 -58.5q-148 29 -369 45l-410 8h-315z" />
    <glyph glyph-name="guilsinglright" unicode="&#x415;" horiz-adv-x="2048" 
d="M725 2597v-1028h635q74 0 205 9.5t159 10.5q-1 -9 -4.5 -31t-5.5 -42.5t-2 -32.5q0 -10 2.5 -33t5.5 -44t4 -38q-59 2 -174.5 11.5t-189.5 9.5h-635v-1196q251 0 741 16q189 6 377 37q-1 -15 -4 -38.5t-5.5 -47t-2.5 -37.5q0 -28 4.5 -60t7.5 -63h-1478v2789h1454
q-2 -25 -7.5 -60.5t-5.5 -62.5q0 -26 5.5 -63.5t7.5 -58.5q-148 29 -369 45l-410 8h-315z" />
    <glyph glyph-name="florin" unicode="&#xc6;" horiz-adv-x="3641" 
d="M1823 2777q28 0 96 6t84 6v-1265q0 -8 12 -8q32 0 78 32q28 21 257 277.5t482 545t367 418.5q26 0 80 -6t84 -6q23 0 76 6t84 6l-1168 -1245q143 -164 401 -489.5t488 -622t328 -424.5v-20q-117 12 -226 12q-124 0 -229 -12q-48 69 -216 297t-445.5 603t-382.5 517
q0 20 -54 20q-16 0 -16 -8v-1429q-111 12 -188 12q-50 0 -173 -12v1429q-69 0 -69 -12q-105 -142 -314.5 -424.5t-446 -603t-284.5 -389.5q-30 2 -109.5 7t-119.5 5q-33 0 -104 -5t-121 -7v20q98 128 304 394t493 628.5t419 513.5l-1167 1245q29 0 82 -6t78 -6q29 0 83 6
t80 6q114 -130 334.5 -381.5t482 -544.5t289.5 -315q12 -5 40 -19.5t38 -17.5q12 0 12 13v1265q35 0 94 -6t87 -6z" />
    <glyph glyph-name="florin" unicode="&#x416;" horiz-adv-x="3641" 
d="M1823 2777q28 0 96 6t84 6v-1265q0 -8 12 -8q32 0 78 32q28 21 257 277.5t482 545t367 418.5q26 0 80 -6t84 -6q23 0 76 6t84 6l-1168 -1245q143 -164 401 -489.5t488 -622t328 -424.5v-20q-117 12 -226 12q-124 0 -229 -12q-48 69 -216 297t-445.5 603t-382.5 517
q0 20 -54 20q-16 0 -16 -8v-1429q-111 12 -188 12q-50 0 -173 -12v1429q-69 0 -69 -12q-105 -142 -314.5 -424.5t-446 -603t-284.5 -389.5q-30 2 -109.5 7t-119.5 5q-33 0 -104 -5t-121 -7v20q98 128 304 394t493 628.5t419 513.5l-1167 1245q29 0 82 -6t78 -6q29 0 83 6
t80 6q114 -130 334.5 -381.5t482 -544.5t289.5 -315q12 -5 40 -19.5t38 -17.5q12 0 12 13v1265q35 0 94 -6t87 -6z" />
    <glyph glyph-name="Ydieresis" unicode="&#xc7;" horiz-adv-x="2503" 
d="M336 2359l-131 234q98 88 306.5 173t528.5 85q204 0 387 -42.5t326 -129.5t223 -217t80 -299q0 -248 -168.5 -425.5t-482.5 -250.5q232 -17 415.5 -105t287.5 -241.5t104 -358.5q0 -275 -155.5 -465.5t-433 -284t-640.5 -93.5q-191 0 -413.5 61.5t-389.5 159.5
q18 38 28.5 79.5t19 97t14.5 85.5l32 16q104 -143 313.5 -241.5t403.5 -98.5q261 0 440.5 79.5t269 231t89.5 365.5q0 187 -85 326.5t-245 216t-379 76.5q-91 0 -368 -13q16 29 16 90q0 30 -16 86q180 -8 319 -8q307 0 463 163.5t156 422.5q0 156 -72.5 283.5t-215.5 202.5
t-343 75q-245 0 -417 -87t-243 -236z" />
    <glyph glyph-name="Ydieresis" unicode="&#x417;" horiz-adv-x="2503" 
d="M336 2359l-131 234q98 88 306.5 173t528.5 85q204 0 387 -42.5t326 -129.5t223 -217t80 -299q0 -248 -168.5 -425.5t-482.5 -250.5q232 -17 415.5 -105t287.5 -241.5t104 -358.5q0 -275 -155.5 -465.5t-433 -284t-640.5 -93.5q-191 0 -413.5 61.5t-389.5 159.5
q18 38 28.5 79.5t19 97t14.5 85.5l32 16q104 -143 313.5 -241.5t403.5 -98.5q261 0 440.5 79.5t269 231t89.5 365.5q0 187 -85 326.5t-245 216t-379 76.5q-91 0 -368 -13q16 29 16 90q0 30 -16 86q180 -8 319 -8q307 0 463 163.5t156 422.5q0 156 -72.5 283.5t-215.5 202.5
t-343 75q-245 0 -417 -87t-243 -236z" />
    <glyph glyph-name="Agrave" unicode="&#xc8;" horiz-adv-x="3187" 
d="M369 -12v2801q41 -12 180 -12q21 0 180 12v-2138h41l1864 2138h180v-2801q-111 12 -180 12q-60 0 -180 -12v2236h-41l-1708 -1986q-113 -124 -213 -250h-123z" />
    <glyph glyph-name="Agrave" unicode="&#x418;" horiz-adv-x="3187" 
d="M369 -12v2801q41 -12 180 -12q21 0 180 12v-2138h41l1864 2138h180v-2801q-111 12 -180 12q-60 0 -180 -12v2236h-41l-1708 -1986q-113 -124 -213 -250h-123z" />
    <glyph glyph-name="fraction" unicode="&#xc9;" horiz-adv-x="3187" 
d="M369 -12v2801q61 -12 180 -12q124 0 180 12v-2138h41l1864 2138h180v-2801q-111 12 -180 12q-60 0 -180 -12v2236h-41q-207 -240 -584.5 -679t-846 -984t-490.5 -573h-123zM2355 3293l99 -164q-396 -233 -848 -233q-444 0 -844 229l106 168q311 -201 738 -201
q426 0 749 201z" />
    <glyph glyph-name="fraction" unicode="&#x419;" horiz-adv-x="3187" 
d="M369 -12v2801q61 -12 180 -12q124 0 180 12v-2138h41l1864 2138h180v-2801q-111 12 -180 12q-60 0 -180 -12v2236h-41q-207 -240 -584.5 -679t-846 -984t-490.5 -573h-123zM2355 3293l99 -164q-396 -233 -848 -233q-444 0 -844 229l106 168q311 -201 738 -201
q426 0 749 201z" />
    <glyph glyph-name="currency" unicode="&#xca;" horiz-adv-x="2503" 
d="M2380 2789l-930 -893l-348 -352q121 -138 247 -280t249.5 -280.5t270 -304t228.5 -261.5l332 -410v-20q-46 2 -119.5 7t-105.5 5q-40 0 -118 -5t-112 -7q-153 223 -282 372l-893 1045q-32 20 -58 20q-12 0 -12 -8v-1429q-35 2 -94 7t-86 5q-32 0 -93 -5t-87 -7v2801
q17 -1 53 -4.5t71 -5.5t56 -2q19 0 53.5 2.5t70.5 5.5t56 4v-1265q0 -8 21 -8q36 0 81 32q67 52 218 201l1007 1040q40 -3 83.5 -7.5t80.5 -4.5q16 0 47 2.5t61.5 5.5t51.5 4z" />
    <glyph glyph-name="currency" unicode="&#x41a;" horiz-adv-x="2503" 
d="M2380 2789l-930 -893l-348 -352q121 -138 247 -280t249.5 -280.5t270 -304t228.5 -261.5l332 -410v-20q-46 2 -119.5 7t-105.5 5q-40 0 -118 -5t-112 -7q-153 223 -282 372l-893 1045q-32 20 -58 20q-12 0 -12 -8v-1429q-35 2 -94 7t-86 5q-32 0 -93 -5t-87 -7v2801
q17 -1 53 -4.5t71 -5.5t56 -2q19 0 53.5 2.5t70.5 5.5t56 4v-1265q0 -8 21 -8q36 0 81 32q67 52 218 201l1007 1040q40 -3 83.5 -7.5t80.5 -4.5q16 0 47 2.5t61.5 5.5t51.5 4z" />
    <glyph glyph-name="quoteleft" unicode="&#xcb;" horiz-adv-x="2654" 
d="M1257 2343q-628 -1424 -933 -2355q-25 2 -75 7t-77 5q-22 0 -71 -5t-76 -7q45 85 222.5 474t387 866t383.5 891.5t223 569.5h193q111 -270 359 -869t497 -1186.5t331 -745.5q-26 2 -94.5 7t-101.5 5q-32 0 -95.5 -5t-105.5 -7q-26 71 -139 356.5t-302.5 765t-311.5 787
t-177 446.5h-37z" />
    <glyph glyph-name="quoteleft" unicode="&#x41b;" horiz-adv-x="2654" 
d="M1257 2343q-628 -1424 -933 -2355q-25 2 -75 7t-77 5q-22 0 -71 -5t-76 -7q45 85 222.5 474t387 866t383.5 891.5t223 569.5h193q111 -270 359 -869t497 -1186.5t331 -745.5q-26 2 -94.5 7t-101.5 5q-32 0 -95.5 -5t-105.5 -7q-26 71 -139 356.5t-302.5 765t-311.5 787
t-177 446.5h-37z" />
    <glyph glyph-name="fl" unicode="&#xcc;" horiz-adv-x="3641" 
d="M3031 2789h86q56 -525 80.5 -743.5t76.5 -672t94 -777.5t81 -608q-42 2 -102.5 7t-90.5 5q-32 0 -98 -5t-94 -7q-26 303 -70 787t-77.5 806.5t-61.5 519.5q-201 -361 -345.5 -624t-280.5 -523.5t-245 -484t-202 -436.5h-45l-226 463q-182 375 -827 1605
q-15 -138 -61 -528t-76 -672.5t-47 -508.5t-17 -404q-31 2 -76.5 7t-66.5 5q-27 0 -76 -5t-71 -7q87 545 226.5 1527t166.5 1274h106q203 -402 382.5 -749t370 -692.5t406.5 -704.5q35 62 191 345.5t371 678.5t353 645.5t265 476.5z" />
    <glyph glyph-name="fl" unicode="&#x41c;" horiz-adv-x="3641" 
d="M3031 2789h86q56 -525 80.5 -743.5t76.5 -672t94 -777.5t81 -608q-42 2 -102.5 7t-90.5 5q-32 0 -98 -5t-94 -7q-26 303 -70 787t-77.5 806.5t-61.5 519.5q-201 -361 -345.5 -624t-280.5 -523.5t-245 -484t-202 -436.5h-45l-226 463q-182 375 -827 1605
q-15 -138 -61 -528t-76 -672.5t-47 -508.5t-17 -404q-31 2 -76.5 7t-66.5 5q-27 0 -76 -5t-71 -7q87 545 226.5 1527t166.5 1274h106q203 -402 382.5 -749t370 -692.5t406.5 -704.5q35 62 191 345.5t371 678.5t353 645.5t265 476.5z" />
    <glyph glyph-name="quotesinglbase" unicode="&#xcd;" horiz-adv-x="3187" 
d="M2454 1614v1175q17 -1 53 -4.5t71 -5.5t56 -2q19 0 53.5 2.5t68.5 5.5t58 4v-2801q-38 2 -95.5 7t-84.5 5q-32 0 -93 -5t-87 -7v1409q-728 20 -861 20q-126 0 -864 -20v-1409q-35 2 -94 7t-86 5q-32 0 -93 -5t-87 -7v2801q17 -1 53 -4.5t71 -5.5t56 -2q19 0 53.5 2.5
t70.5 5.5t56 4v-1175q153 -4 421 -12.5t443 -8.5q179 0 445 8.5t416 12.5z" />
    <glyph glyph-name="quotesinglbase" unicode="&#x41d;" horiz-adv-x="3187" 
d="M2454 1614v1175q17 -1 53 -4.5t71 -5.5t56 -2q19 0 53.5 2.5t68.5 5.5t58 4v-2801q-38 2 -95.5 7t-84.5 5q-32 0 -93 -5t-87 -7v1409q-728 20 -861 20q-126 0 -864 -20v-1409q-35 2 -94 7t-86 5q-32 0 -93 -5t-87 -7v2801q17 -1 53 -4.5t71 -5.5t56 -2q19 0 53.5 2.5
t70.5 5.5t56 4v-1175q153 -4 421 -12.5t443 -8.5q179 0 445 8.5t416 12.5z" />
    <glyph glyph-name="quotedblright" unicode="&#xce;" horiz-adv-x="3412" 
d="M1679 -61q-334 0 -613.5 102.5t-479.5 295t-307 461t-107 591.5q0 329 115.5 601.5t323 464.5t483.5 294t594 102q299 0 576 -83t497.5 -255t349.5 -440t129 -623q0 -337 -113.5 -616.5t-325 -481t-498.5 -307.5t-624 -106zM2839 1417q0 285 -55 497.5t-204 403.5
q-151 192 -377 295t-474 103q-355 0 -617 -170t-400.5 -482t-138.5 -725q0 -400 149 -687t405 -432.5t565 -145.5q294 0 514 127.5t359.5 332t206.5 439t67 444.5z" />
    <glyph glyph-name="quotedblright" unicode="&#x41e;" horiz-adv-x="3412" 
d="M1679 -61q-334 0 -613.5 102.5t-479.5 295t-307 461t-107 591.5q0 329 115.5 601.5t323 464.5t483.5 294t594 102q299 0 576 -83t497.5 -255t349.5 -440t129 -623q0 -337 -113.5 -616.5t-325 -481t-498.5 -307.5t-624 -106zM2839 1417q0 285 -55 497.5t-204 403.5
q-151 192 -377 295t-474 103q-355 0 -617 -170t-400.5 -482t-138.5 -725q0 -400 149 -687t405 -432.5t565 -145.5q294 0 514 127.5t359.5 332t206.5 439t67 444.5z" />
    <glyph glyph-name="emdash" unicode="&#xcf;" horiz-adv-x="3187" 
d="M369 2789h2445v-2801q-38 2 -95.5 7t-84.5 5q-32 0 -93 -5t-87 -7v2597q-436 12 -861 12q-421 0 -864 -12v-2597q-35 2 -94 7t-86 5q-32 0 -93 -5t-87 -7v2801z" />
    <glyph glyph-name="emdash" unicode="&#x41f;" horiz-adv-x="3187" 
d="M369 2789h2445v-2801q-38 2 -95.5 7t-84.5 5q-32 0 -93 -5t-87 -7v2597q-436 12 -861 12q-421 0 -864 -12v-2597q-35 2 -94 7t-86 5q-32 0 -93 -5t-87 -7v2801z" />
    <glyph glyph-name="endash" unicode="&#xd0;" horiz-adv-x="2351" 
d="M729 1274v-1286q-35 2 -94 7t-86 5q-32 0 -93 -5t-87 -7v2801h733q402 0 630 -64.5t327.5 -209.5t99.5 -397q0 -183 -55.5 -321.5t-164 -236.5t-272 -166t-385.5 -112q-92 -20 -238 -20q-75 0 -184 6t-131 6zM729 2630v-1196q119 -9 189 -9q59 0 217 9
q304 31 475.5 209.5t171.5 453.5q0 145 -49.5 258.5t-153 184.5t-260.5 86q-86 8 -315 8q-213 0 -275 -4z" />
    <glyph glyph-name="endash" unicode="&#x420;" horiz-adv-x="2351" 
d="M729 1274v-1286q-35 2 -94 7t-86 5q-32 0 -93 -5t-87 -7v2801h733q402 0 630 -64.5t327.5 -209.5t99.5 -397q0 -183 -55.5 -321.5t-164 -236.5t-272 -166t-385.5 -112q-92 -20 -238 -20q-75 0 -184 6t-131 6zM729 2630v-1196q119 -9 189 -9q59 0 217 9
q304 31 475.5 209.5t171.5 453.5q0 145 -49.5 258.5t-153 184.5t-260.5 86q-86 8 -315 8q-213 0 -275 -4z" />
    <glyph glyph-name="Atilde" unicode="&#xd1;" horiz-adv-x="2732" 
d="M2523 430l-20 -258q-349 -233 -906 -233q-333 0 -600.5 101.5t-456.5 294.5t-286.5 465t-97.5 605q0 446 202.5 775t555.5 500t786 171q445 0 880 -189q-48 -123 -86 -315l-28 -4q-39 51 -150 135t-278 150.5t-355 66.5q-273 0 -486 -102.5t-355 -283t-213.5 -417
t-71.5 -503.5q0 -385 138.5 -679t389 -453t570.5 -159q283 0 512 112t356 220z" />
    <glyph glyph-name="Atilde" unicode="&#x421;" horiz-adv-x="2732" 
d="M2523 430l-20 -258q-349 -233 -906 -233q-333 0 -600.5 101.5t-456.5 294.5t-286.5 465t-97.5 605q0 446 202.5 775t555.5 500t786 171q445 0 880 -189q-48 -123 -86 -315l-28 -4q-39 51 -150 135t-278 150.5t-355 66.5q-273 0 -486 -102.5t-355 -283t-213.5 -417
t-71.5 -503.5q0 -385 138.5 -679t389 -453t570.5 -159q283 0 512 112t356 220z" />
    <glyph glyph-name="lozenge" unicode="&#xd2;" 
d="M1339 2593v-2605q-97 12 -180 12q-94 0 -180 -12v2605q-421 0 -897 -49q2 21 7 62t5 60q0 20 -5 59t-7 64h2113q-1 -15 -4 -38.5t-5.5 -47t-2.5 -37.5t2 -37t5.5 -48t4.5 -37q-416 49 -856 49z" />
    <glyph glyph-name="lozenge" unicode="&#x422;" 
d="M1339 2593v-2605q-97 12 -180 12q-94 0 -180 -12v2605q-421 0 -897 -49q2 21 7 62t5 60q0 20 -5 59t-7 64h2113q-1 -15 -4 -38.5t-5.5 -47t-2.5 -37.5t2 -37t5.5 -48t4.5 -37q-416 49 -856 49z" />
    <glyph glyph-name="OE" unicode="&#xd3;" horiz-adv-x="2654" 
d="M1602 1229q23 48 103.5 210t226 453.5t250 510.5t173.5 386q67 -12 139 -12q15 0 43.5 2.5t57.5 5.5t47 4q-47 -77 -217 -399.5t-434 -838.5t-481.5 -951.5t-297.5 -611.5q-84 12 -127 12q-97 0 -184 -12q141 221 282 471.5t206 371.5q-131 191 -372 541.5t-578.5 834
t-413.5 582.5q183 -12 254 -12q20 0 64.5 2.5t90 5.5t66.5 4q554 -910 1056 -1560h46z" />
    <glyph glyph-name="OE" unicode="&#x423;" horiz-adv-x="2654" 
d="M1602 1229q23 48 103.5 210t226 453.5t250 510.5t173.5 386q67 -12 139 -12q15 0 43.5 2.5t57.5 5.5t47 4q-47 -77 -217 -399.5t-434 -838.5t-481.5 -951.5t-297.5 -611.5q-84 12 -127 12q-97 0 -184 -12q141 221 282 471.5t206 371.5q-131 191 -372 541.5t-578.5 834
t-413.5 582.5q183 -12 254 -12q20 0 64.5 2.5t90 5.5t66.5 4q554 -910 1056 -1560h46z" />
    <glyph glyph-name="ellipsis" unicode="&#xd4;" horiz-adv-x="3641" 
d="M3064 1409q0 275 -125.5 511.5t-368 378.5t-571.5 142v-2060q239 0 437 78.5t339 219.5t215 327.5t74 402.5zM573 1409q0 -217 74.5 -402.5t216 -327t339 -220t435.5 -78.5v2060q-331 0 -572.5 -137t-367 -372.5t-125.5 -522.5zM1638 -12v241q-341 0 -615 90.5t-465 255
t-288.5 377.5t-97.5 457q0 338 173.5 604t506 414.5t786.5 148.5v213q54 -12 181 -12q118 0 180 12v-213q455 0 787 -148.5t505.5 -414.5t173.5 -604q0 -330 -174 -600.5t-506 -425t-786 -154.5v-241q-57 12 -180 12t-181 -12z" />
    <glyph glyph-name="ellipsis" unicode="&#x424;" horiz-adv-x="3641" 
d="M3064 1409q0 275 -125.5 511.5t-368 378.5t-571.5 142v-2060q239 0 437 78.5t339 219.5t215 327.5t74 402.5zM573 1409q0 -217 74.5 -402.5t216 -327t339 -220t435.5 -78.5v2060q-331 0 -572.5 -137t-367 -372.5t-125.5 -522.5zM1638 -12v241q-341 0 -615 90.5t-465 255
t-288.5 377.5t-97.5 457q0 338 173.5 604t506 414.5t786.5 148.5v213q54 -12 181 -12q118 0 180 12v-213q455 0 787 -148.5t505.5 -414.5t173.5 -604q0 -330 -174 -600.5t-506 -425t-786 -154.5v-241q-57 12 -180 12t-181 -12z" />
    <glyph glyph-name="caron" unicode="&#xd5;" horiz-adv-x="2503" 
d="M643 713l455 684q-53 86 -110 180.5t-192.5 318t-168.5 275.5l-406 618q21 -1 65.5 -4.5t88.5 -5.5q43 -2 67 -2q22 0 65.5 2.5t85.5 5.5t71 4q93 -153 208 -352l435 -745q77 124 183 285t185.5 281t164.5 259.5t155 271.5q37 -3 76.5 -7.5t74.5 -4.5q32 0 72.5 4.5
t79.5 7.5q-35 -33 -70 -82l-626 -872l-201 -303l950 -1544q-43 2 -115.5 7t-109.5 5q-40 0 -117 -5t-108 -7q-330 645 -709 1245q-385 -582 -741 -1245q-30 2 -79 7t-73 5q-27 0 -77 -5t-75 -7q94 141 251.5 367.5t244.5 357.5z" />
    <glyph glyph-name="caron" unicode="&#x425;" horiz-adv-x="2503" 
d="M643 713l455 684q-53 86 -110 180.5t-192.5 318t-168.5 275.5l-406 618q21 -1 65.5 -4.5t88.5 -5.5q43 -2 67 -2q22 0 65.5 2.5t85.5 5.5t71 4q93 -153 208 -352l435 -745q77 124 183 285t185.5 281t164.5 259.5t155 271.5q37 -3 76.5 -7.5t74.5 -4.5q32 0 72.5 4.5
t79.5 7.5q-35 -33 -70 -82l-626 -872l-201 -303l950 -1544q-43 2 -115.5 7t-109.5 5q-40 0 -117 -5t-108 -7q-330 645 -709 1245q-385 -582 -741 -1245q-30 2 -79 7t-73 5q-27 0 -77 -5t-75 -7q94 141 251.5 367.5t244.5 357.5z" />
    <glyph glyph-name="daggerdbl" unicode="&#xd6;" horiz-adv-x="3187" 
d="M2793 2802v-2605h230q-3 -24 -7.5 -72t-4.5 -92q0 -43 4.5 -107t7.5 -98h-37q-78 117 -247 144.5t-572 27.5h-590q-852 0 -1208 -12v2814q77 -13 180 -13q98 0 180 13v-2601h1704v2601q65 -13 180 -13q92 0 180 13z" />
    <glyph glyph-name="daggerdbl" unicode="&#x426;" horiz-adv-x="3187" 
d="M2793 2802v-2605h230q-3 -24 -7.5 -72t-4.5 -92q0 -43 4.5 -107t7.5 -98h-37q-78 117 -247 144.5t-572 27.5h-590q-852 0 -1208 -12v2814q77 -13 180 -13q98 0 180 13v-2601h1704v2601q65 -13 180 -13q92 0 180 13z" />
    <glyph glyph-name="periodcentered" unicode="&#xd7;" horiz-adv-x="2957" 
d="M2224 1614v1175q17 -1 53 -4.5t71 -5.5t56 -2q18 0 53.5 2.5t69.5 5.5t58 4v-2801q-36 2 -94 7t-87 5q-30 0 -92 -5t-88 -7v1409q-496 -258 -1020 -258q-207 0 -418 71.5t-351 217.5t-140 350v1011q17 -1 53 -4.5t71 -5.5t56 -2q19 0 53.5 2.5t70.5 5.5t56 4v-1011
q0 -154 108 -250t269 -136t336 -40q204 0 453 79t403 183z" />
    <glyph glyph-name="periodcentered" unicode="&#x427;" horiz-adv-x="2957" 
d="M2224 1614v1175q17 -1 53 -4.5t71 -5.5t56 -2q18 0 53.5 2.5t69.5 5.5t58 4v-2801q-36 2 -94 7t-87 5q-30 0 -92 -5t-88 -7v1409q-496 -258 -1020 -258q-207 0 -418 71.5t-351 217.5t-140 350v1011q17 -1 53 -4.5t71 -5.5t56 -2q19 0 53.5 2.5t70.5 5.5t56 4v-1011
q0 -154 108 -250t269 -136t336 -40q204 0 453 79t403 183z" />
    <glyph glyph-name="quotedblleft" unicode="&#xd8;" horiz-adv-x="3641" 
d="M729 201h909v2601q84 -13 181 -13q118 0 180 13v-2601h909v2601q84 -13 180 -13q91 0 181 13v-2814q-295 12 -1450 12q-1082 0 -1450 -12v2814q77 -13 180 -13q92 0 180 13v-2601z" />
    <glyph glyph-name="quotedblleft" unicode="&#x428;" horiz-adv-x="3641" 
d="M729 201h909v2601q84 -13 181 -13q118 0 180 13v-2601h909v2601q84 -13 180 -13q91 0 181 13v-2814q-295 12 -1450 12q-1082 0 -1450 -12v2814q77 -13 180 -13q92 0 180 13v-2601z" />
    <glyph glyph-name="ydieresis" unicode="&#xd9;" horiz-adv-x="3641" 
d="M3260 2802v-2605h230q-3 -24 -7.5 -72t-4.5 -92q0 -43 4.5 -107t7.5 -98h-37q-54 79 -156.5 116.5t-243 46.5t-419.5 9h-811q-1329 -8 -1454 -12v2814q77 -13 180 -13q98 0 180 13v-2601h905v2601q84 -13 181 -13q96 0 180 13v-2601h905v2601q65 -13 180 -13q92 0 180 13
z" />
    <glyph glyph-name="ydieresis" unicode="&#x429;" horiz-adv-x="3641" 
d="M3260 2802v-2605h230q-3 -24 -7.5 -72t-4.5 -92q0 -43 4.5 -107t7.5 -98h-37q-54 79 -156.5 116.5t-243 46.5t-419.5 9h-811q-1329 -8 -1454 -12v2814q77 -13 180 -13q98 0 180 13v-2601h905v2601q84 -13 181 -13q96 0 180 13v-2601h905v2601q65 -13 180 -13q92 0 180 13
z" />
    <glyph glyph-name="questiondown" unicode="&#xda;" horiz-adv-x="2351" 
d="M770 1364v-1196h406q304 31 475.5 209.5t171.5 453.5q0 145 -49.5 258.5t-153 184.5t-260.5 86q-70 8 -250 8q-73 0 -192 -2t-148 -2zM-29 2789h799v-1265h373q402 0 630 -64.5t327.5 -210t99.5 -397.5q0 -183 -55.5 -321.5t-164 -236.5t-272 -166t-385.5 -112
q-107 -20 -471 -20q-130 0 -291 2l-152 2h1v2589q-232 0 -439 -45q13 59 13 122q0 64 -13 123z" />
    <glyph glyph-name="questiondown" unicode="&#x42a;" horiz-adv-x="2351" 
d="M770 1364v-1196h406q304 31 475.5 209.5t171.5 453.5q0 145 -49.5 258.5t-153 184.5t-260.5 86q-70 8 -250 8q-73 0 -192 -2t-148 -2zM-29 2789h799v-1265h373q402 0 630 -64.5t327.5 -210t99.5 -397.5q0 -183 -55.5 -321.5t-164 -236.5t-272 -166t-385.5 -112
q-107 -20 -471 -20q-130 0 -291 2l-152 2h1v2589q-232 0 -439 -45q13 59 13 122q0 64 -13 123z" />
    <glyph glyph-name="guilsinglleft" unicode="&#xdb;" horiz-adv-x="3260" 
d="M729 1364v-1196h406q304 31 475.5 209.5t171.5 453.5q0 145 -49.5 258.5t-153 184.5t-260.5 86q-70 8 -250 8q-73 0 -192 -2t-148 -2zM729 2789v-1265h373q402 0 630 -64.5t327.5 -210t99.5 -397.5q0 -247 -93.5 -415t-285 -269t-498.5 -152q-117 -20 -549 -20
q-110 0 -241 2l-123 2v0v2789q18 -1 53.5 -4.5t70 -5.5t56.5 -2q19 0 53.5 2.5t70.5 5.5t56 4zM2531 -12v2801q87 -12 181 -12q118 0 180 12v-2801q-38 2 -95.5 7t-84.5 5q-32 0 -92 -5t-89 -7z" />
    <glyph glyph-name="guilsinglleft" unicode="&#x42b;" horiz-adv-x="3260" 
d="M729 1364v-1196h406q304 31 475.5 209.5t171.5 453.5q0 145 -49.5 258.5t-153 184.5t-260.5 86q-70 8 -250 8q-73 0 -192 -2t-148 -2zM729 2789v-1265h373q402 0 630 -64.5t327.5 -210t99.5 -397.5q0 -247 -93.5 -415t-285 -269t-498.5 -152q-117 -20 -549 -20
q-110 0 -241 2l-123 2v0v2789q18 -1 53.5 -4.5t70 -5.5t56.5 -2q19 0 53.5 2.5t70.5 5.5t56 4zM2531 -12v2801q87 -12 181 -12q118 0 180 12v-2801q-38 2 -95.5 7t-84.5 5q-32 0 -92 -5t-89 -7z" />
    <glyph glyph-name="divide" unicode="&#xdc;" horiz-adv-x="2351" 
d="M729 1364v-1196h406q304 31 475.5 209.5t171.5 453.5q0 145 -49.5 258.5t-153 184.5t-260.5 86q-70 8 -250 8q-73 0 -192 -2t-148 -2zM729 2789v-1265h373q402 0 630 -64.5t327.5 -210t99.5 -397.5q0 -183 -55.5 -321.5t-164 -236.5t-272 -166t-385.5 -112
q-107 -20 -471 -20q-130 0 -291 2l-152 2h1v2789q85 -12 180 -12q18 0 53.5 2.5t70 5.5t56.5 4z" />
    <glyph glyph-name="divide" unicode="&#x42c;" horiz-adv-x="2351" 
d="M729 1364v-1196h406q304 31 475.5 209.5t171.5 453.5q0 145 -49.5 258.5t-153 184.5t-260.5 86q-70 8 -250 8q-73 0 -192 -2t-148 -2zM729 2789v-1265h373q402 0 630 -64.5t327.5 -210t99.5 -397.5q0 -183 -55.5 -321.5t-164 -236.5t-272 -166t-385.5 -112
q-107 -20 -471 -20q-130 0 -291 2l-152 2h1v2789q85 -12 180 -12q18 0 53.5 2.5t70 5.5t56.5 4z" />
    <glyph glyph-name="uacute" unicode="&#xdd;" horiz-adv-x="2732" 
d="M1032 1569h1135q-20 237 -102 441.5t-222.5 358t-341.5 240t-452 86.5q-188 0 -355 -66.5t-278 -150.5t-150 -135l-28 4q-39 197 -86 315q435 189 880 189q433 0 786 -171t555.5 -500t202.5 -775q0 -334 -97.5 -605t-285.5 -464.5t-456.5 -295t-601.5 -101.5
q-556 0 -906 233l-20 258q125 -107 356 -219.5t512 -112.5q240 0 443 91t349.5 260.5t226 408.5t79.5 531h-1143q-72 0 -187 -10.5t-177 -10.5q0 24 6 62t6 53q0 20 -6 55t-6 51q62 0 182 -10t182 -10z" />
    <glyph glyph-name="uacute" unicode="&#x42d;" horiz-adv-x="2732" 
d="M1032 1569h1135q-20 237 -102 441.5t-222.5 358t-341.5 240t-452 86.5q-188 0 -355 -66.5t-278 -150.5t-150 -135l-28 4q-39 197 -86 315q435 189 880 189q433 0 786 -171t555.5 -500t202.5 -775q0 -334 -97.5 -605t-285.5 -464.5t-456.5 -295t-601.5 -101.5
q-556 0 -906 233l-20 258q125 -107 356 -219.5t512 -112.5q240 0 443 91t349.5 260.5t226 408.5t79.5 531h-1143q-72 0 -187 -10.5t-177 -10.5q0 24 6 62t6 53q0 20 -6 55t-6 51q62 0 182 -10t182 -10z" />
    <glyph glyph-name="guillemotright" unicode="&#xde;" horiz-adv-x="4325" 
d="M3768 1417q0 284 -54.5 497t-203.5 404q-152 192 -377 295t-475 103q-355 0 -616.5 -170t-400 -482t-138.5 -725q0 -400 149 -687t404 -432.5t565 -145.5q294 0 515.5 128.5t359.5 332t205 438t67 444.5zM1102 1389v8h-373v-1409q-28 2 -90 7t-90 5q-32 0 -93 -5t-87 -7
v2801q73 -12 180 -12q88 0 180 12v-1175h385q38 282 167.5 512t330 392t457 247.5t548.5 85.5q299 0 576 -83t497.5 -254.5t350 -440t129.5 -623.5q0 -337 -113.5 -616.5t-325 -481t-498.5 -307.5t-624 -106q-334 0 -613.5 102.5t-479.5 295t-307 461t-107 591.5z" />
    <glyph glyph-name="guillemotright" unicode="&#x42e;" horiz-adv-x="4325" 
d="M3768 1417q0 284 -54.5 497t-203.5 404q-152 192 -377 295t-475 103q-355 0 -616.5 -170t-400 -482t-138.5 -725q0 -400 149 -687t404 -432.5t565 -145.5q294 0 515.5 128.5t359.5 332t205 438t67 444.5zM1102 1389v8h-373v-1409q-28 2 -90 7t-90 5q-32 0 -93 -5t-87 -7
v2801q73 -12 180 -12q88 0 180 12v-1175h385q38 282 167.5 512t330 392t457 247.5t548.5 85.5q299 0 576 -83t497.5 -254.5t350 -440t129.5 -623.5q0 -337 -113.5 -616.5t-325 -481t-498.5 -307.5t-624 -106q-334 0 -613.5 102.5t-479.5 295t-307 461t-107 591.5z" />
    <glyph glyph-name="quotedblbase" unicode="&#xdf;" horiz-adv-x="2503" 
d="M2134 2789v-2801q-24 2 -86.5 7t-93.5 5q-29 0 -88 -5t-92 -7v1368h-156l-328 -385l-483 -627q-109 -146 -258 -356q-37 2 -116 7t-118 5q-37 0 -114 -5t-123 -7l78 102l196 229l844 1070q-222 39 -412.5 134t-309 257.5t-118.5 386.5q0 313 220.5 467.5t689.5 154.5h868
zM1774 1511v1127q-44 0 -164 4t-185 4q-188 0 -254 -12q-450 -72 -450 -516q0 -232 145 -384.5t379 -201.5q132 -25 336 -25q53 0 120 2t73 2z" />
    <glyph glyph-name="quotedblbase" unicode="&#x42f;" horiz-adv-x="2503" 
d="M2134 2789v-2801q-24 2 -86.5 7t-93.5 5q-29 0 -88 -5t-92 -7v1368h-156l-328 -385l-483 -627q-109 -146 -258 -356q-37 2 -116 7t-118 5q-37 0 -114 -5t-123 -7l78 102l196 229l844 1070q-222 39 -412.5 134t-309 257.5t-118.5 386.5q0 313 220.5 467.5t689.5 154.5h868
zM1774 1511v1127q-44 0 -164 4t-185 4q-188 0 -254 -12q-450 -72 -450 -516q0 -232 145 -384.5t379 -201.5q132 -25 336 -25q53 0 120 2t73 2z" />
    <glyph glyph-name="Iacute" unicode="&#xe0;" horiz-adv-x="2048" 
d="M1692 1282v-950q0 -115 18 -160t92 -45q54 0 119 16v-90q-81 -34 -123 -41q-67 -12 -131 -12q-259 7 -291 250l-37 -37q-258 -258 -606 -258q-226 0 -387.5 140.5t-161.5 359.5q0 216 102.5 335t257 167t402.5 87q183 31 268.5 55.5t125.5 73.5t40 146q0 227 -125 353
t-354 126q-198 0 -328 -94.5t-159 -187.5h-45v229q327 225 659 225q664 0 664 -688zM1364 410v598l-143 -33q-74 -14 -219 -43t-246 -74t-166.5 -129t-65.5 -217q0 -189 105.5 -285t296.5 -96q78 0 172.5 47.5t154.5 108.5q12 10 43.5 39.5t49.5 50t18 33.5z" />
    <glyph glyph-name="Iacute" unicode="&#x430;" horiz-adv-x="2048" 
d="M1692 1282v-950q0 -115 18 -160t92 -45q54 0 119 16v-90q-81 -34 -123 -41q-67 -12 -131 -12q-259 7 -291 250l-37 -37q-258 -258 -606 -258q-226 0 -387.5 140.5t-161.5 359.5q0 216 102.5 335t257 167t402.5 87q183 31 268.5 55.5t125.5 73.5t40 146q0 227 -125 353
t-354 126q-198 0 -328 -94.5t-159 -187.5h-45v229q327 225 659 225q664 0 664 -688zM1364 410v598l-143 -33q-74 -14 -219 -43t-246 -74t-166.5 -129t-65.5 -217q0 -189 105.5 -285t296.5 -96q78 0 172.5 47.5t154.5 108.5q12 10 43.5 39.5t49.5 50t18 33.5z" />
    <glyph glyph-name="logicalnot" unicode="&#xe1;" 
d="M455 1741q136 113 324.5 171t404.5 58q279 0 495 -123t335.5 -349.5t119.5 -526.5q0 -197 -65.5 -380t-197 -327.5t-323.5 -226.5t-438 -82q-198 0 -375.5 70t-309.5 203t-207 325t-75 430q0 585 86.5 934.5t291 538t557 261t937.5 72.5q-12 -108 -12 -127q0 -56 12 -118
q-287 41 -626 41q-294 0 -505 -107.5t-320 -299t-109 -437.5zM1180 1843q-244 0 -396 -133t-216 -341t-64 -447q0 -345 158 -592.5t481 -247.5q221 0 363 150.5t205 362t63 396.5q0 209 -58 402.5t-191 321.5t-345 128z" />
    <glyph glyph-name="logicalnot" unicode="&#x431;" 
d="M455 1741q136 113 324.5 171t404.5 58q279 0 495 -123t335.5 -349.5t119.5 -526.5q0 -197 -65.5 -380t-197 -327.5t-323.5 -226.5t-438 -82q-198 0 -375.5 70t-309.5 203t-207 325t-75 430q0 585 86.5 934.5t291 538t557 261t937.5 72.5q-12 -108 -12 -127q0 -56 12 -118
q-287 41 -626 41q-294 0 -505 -107.5t-320 -299t-109 -437.5zM1180 1843q-244 0 -396 -133t-216 -341t-64 -447q0 -345 158 -592.5t481 -247.5q221 0 363 150.5t205 362t63 396.5q0 209 -58 402.5t-191 321.5t-345 128z" />
    <glyph glyph-name="Edieresis" unicode="&#xe2;" horiz-adv-x="2048" 
d="M0 0h315v1933h787q680 0 680 -475q0 -170 -117 -279t-317 -135q260 -44 406.5 -150.5t146.5 -356.5q0 -172 -98 -295t-260.5 -184.5t-350.5 -61.5zM643 950v-790h426q200 0 329.5 100.5t129.5 276.5q0 149 -52.5 240.5t-154 132t-252.5 40.5h-426zM643 1774v-672h385
q393 0 393 348q0 324 -377 324h-401z" />
    <glyph glyph-name="Edieresis" unicode="&#x432;" horiz-adv-x="2048" 
d="M0 0h315v1933h787q680 0 680 -475q0 -170 -117 -279t-317 -135q260 -44 406.5 -150.5t146.5 -356.5q0 -172 -98 -295t-260.5 -184.5t-350.5 -61.5zM643 950v-790h426q200 0 329.5 100.5t129.5 276.5q0 149 -52.5 240.5t-154 132t-252.5 40.5h-426zM643 1774v-672h385
q393 0 393 348q0 324 -377 324h-401z" />
    <glyph glyph-name="breve" unicode="&#xe3;" horiz-adv-x="1667" 
d="M643 1757v-1769q-26 2 -83 7t-81 5q-29 0 -83 -5t-81 -7v1945h1303q-8 -82 -8 -110q0 -37 8 -111q-240 45 -975 45z" />
    <glyph glyph-name="breve" unicode="&#x433;" horiz-adv-x="1667" 
d="M643 1757v-1769q-26 2 -83 7t-81 5q-29 0 -83 -5t-81 -7v1945h1303q-8 -82 -8 -110q0 -37 8 -111q-240 45 -975 45z" />
    <glyph glyph-name="apple" unicode="&#xe4;" horiz-adv-x="2048" 
d="M12 184h168q69 144 172.5 374t207.5 471.5t197.5 474.5t164.5 438q29 0 67.5 -6.5t54.5 -6.5q25 0 63.5 6.5t63.5 6.5q59 -164 186.5 -484.5t257.5 -636t269 -637.5h152q-8 -82 -8 -151q0 -115 8 -152h-29q-102 80 -245.5 99.5t-430.5 19.5h-614q-283 0 -426.5 -19.5
t-245.5 -99.5h-33q13 37 13 152q0 84 -13 151zM422 184h1126q-173 530 -549 1377h-28q-37 -85 -120.5 -285.5t-209 -515.5t-219.5 -576z" />
    <glyph glyph-name="apple" unicode="&#x434;" horiz-adv-x="2048" 
d="M12 184h168q69 144 172.5 374t207.5 471.5t197.5 474.5t164.5 438q29 0 67.5 -6.5t54.5 -6.5q25 0 63.5 6.5t63.5 6.5q59 -164 186.5 -484.5t257.5 -636t269 -637.5h152q-8 -82 -8 -151q0 -115 8 -152h-29q-102 80 -245.5 99.5t-430.5 19.5h-614q-283 0 -426.5 -19.5
t-245.5 -99.5h-33q13 37 13 152q0 84 -13 151zM422 184h1126q-173 530 -549 1377h-28q-37 -85 -120.5 -285.5t-209 -515.5t-219.5 -576z" />
    <glyph glyph-name="macron" unicode="&#xe5;" horiz-adv-x="2048" 
d="M1819 410l-4 -213q-338 -242 -705 -242q-282 0 -502 120.5t-342.5 348.5t-122.5 539q0 287 109 516.5t321 360t508 130.5q225 0 416 -101.5t305.5 -307.5t114.5 -504q0 -14 -2 -44t-2 -46q-418 12 -832 12h-577q-4 -29 -4 -86q0 -212 82.5 -387t245 -277t384.5 -102
q313 0 607 283zM504 1130h1089q-16 713 -512 713q-181 0 -307.5 -102t-191.5 -264.5t-78 -346.5z" />
    <glyph glyph-name="macron" unicode="&#x435;" horiz-adv-x="2048" 
d="M1819 410l-4 -213q-338 -242 -705 -242q-282 0 -502 120.5t-342.5 348.5t-122.5 539q0 287 109 516.5t321 360t508 130.5q225 0 416 -101.5t305.5 -307.5t114.5 -504q0 -14 -2 -44t-2 -46q-418 12 -832 12h-577q-4 -29 -4 -86q0 -212 82.5 -387t245 -277t384.5 -102
q313 0 607 283zM504 1130h1089q-16 713 -512 713q-181 0 -307.5 -102t-191.5 -264.5t-78 -346.5z" />
    <glyph glyph-name="approxequal" unicode="&#xe6;" horiz-adv-x="2957" 
d="M1315 1946q77 -13 164 -13q81 0 163 13v-717q0 -119 21 -135q33 0 274 241l254 258l320 353q71 -13 164 -13q77 0 159 13v-29q-34 -31 -177 -152.5t-226.5 -192.5t-231 -202t-266.5 -244q120 -138 337.5 -392.5t350.5 -409.5t275 -316v-20q-41 0 -105 6t-96 6
q-38 0 -105 -6t-100 -6q-163 215 -782 921q-60 66 -61 66q-9 0 -9 -25q0 -7 2 -49t2 -78v-835q-31 2 -84 7t-79 5q-23 0 -79 -5t-85 -7v835q0 152 -4 152q-2 0 -62 -66q-612 -699 -782 -921q-32 0 -99 6t-106 6q-30 0 -95 -6t-106 -6v20q142 161 275 316t350.5 409.5
t337.5 392.5q-152 144 -300.5 274.5t-367.5 317t-233 199.5v29q33 -2 80 -7.5t80 -5.5q86 0 163 13l320 -353l254 -258q241 -241 274 -241q21 16 21 135v717z" />
    <glyph glyph-name="approxequal" unicode="&#x436;" horiz-adv-x="2957" 
d="M1315 1946q77 -13 164 -13q81 0 163 13v-717q0 -119 21 -135q33 0 274 241l254 258l320 353q71 -13 164 -13q77 0 159 13v-29q-34 -31 -177 -152.5t-226.5 -192.5t-231 -202t-266.5 -244q120 -138 337.5 -392.5t350.5 -409.5t275 -316v-20q-41 0 -105 6t-96 6
q-38 0 -105 -6t-100 -6q-163 215 -782 921q-60 66 -61 66q-9 0 -9 -25q0 -7 2 -49t2 -78v-835q-31 2 -84 7t-79 5q-23 0 -79 -5t-85 -7v835q0 152 -4 152q-2 0 -62 -66q-612 -699 -782 -921q-32 0 -99 6t-106 6q-30 0 -95 -6t-106 -6v20q142 161 275 316t350.5 409.5
t337.5 392.5q-152 144 -300.5 274.5t-367.5 317t-233 199.5v29q33 -2 80 -7.5t80 -5.5q86 0 163 13l320 -353l254 -258q241 -241 274 -241q21 16 21 135v717z" />
    <glyph glyph-name="Ugrave" unicode="&#xe7;" horiz-adv-x="1819" 
d="M1516 1470q0 -171 -115.5 -286t-298.5 -144q231 -27 383.5 -150t152.5 -362q0 -276 -248 -424.5t-575 -148.5q-425 0 -643 131q73 217 86 299h33q162 -303 524 -303q131 0 235 55t162 154t58 221q0 204 -126 319t-337 115q-77 0 -283 -8v176q115 -8 283 -8q156 0 252 104
t96 260q0 161 -103.5 267t-265.5 106q-315 0 -421 -270h-37q-38 151 -99 291q174 106 594 106q185 0 344 -54t254 -166.5t95 -279.5z" />
    <glyph glyph-name="Ugrave" unicode="&#x437;" horiz-adv-x="1819" 
d="M1516 1470q0 -171 -115.5 -286t-298.5 -144q231 -27 383.5 -150t152.5 -362q0 -276 -248 -424.5t-575 -148.5q-425 0 -643 131q73 217 86 299h33q162 -303 524 -303q131 0 235 55t162 154t58 221q0 204 -126 319t-337 115q-77 0 -283 -8v176q115 -8 283 -8q156 0 252 104
t96 260q0 161 -103.5 267t-265.5 106q-315 0 -421 -270h-37q-38 151 -99 291q174 106 594 106q185 0 344 -54t254 -166.5t95 -279.5z" />
    <glyph glyph-name="Ecircumflex" unicode="&#xe8;" 
d="M643 520q124 134 268 300.5t297.5 355.5t306 388t283.5 382h164v-1958q-28 2 -83 7t-81 5q-29 0 -83 -5t-81 -7v1425q-225 -253 -420 -483t-390.5 -477.5t-344.5 -464.5h-164v1958q50 -13 164 -13q107 0 164 13v-1426z" />
    <glyph glyph-name="Ecircumflex" unicode="&#x438;" 
d="M643 520q124 134 268 300.5t297.5 355.5t306 388t283.5 382h164v-1958q-28 2 -83 7t-81 5q-29 0 -83 -5t-81 -7v1425q-225 -253 -420 -483t-390.5 -477.5t-344.5 -464.5h-164v1958q50 -13 164 -13q107 0 164 13v-1426z" />
    <glyph glyph-name="dotlessi" unicode="&#xe9;" 
d="M643 520q124 134 268 300.5t297.5 355.5t306 388t283.5 382h164v-1958q-28 2 -83 7t-81 5q-83 0 -164 -12v1425q-225 -253 -420 -483t-390.5 -477.5t-344.5 -464.5h-164v1958q78 -13 164 -13q82 0 164 13v-1426zM1745 2458l82 -136q-327 -192 -692 -192q-358 0 -689 188
l82 140q262 -164 607 -164q350 0 610 164z" />
    <glyph glyph-name="dotlessi" unicode="&#x439;" 
d="M643 520q124 134 268 300.5t297.5 355.5t306 388t283.5 382h164v-1958q-28 2 -83 7t-81 5q-83 0 -164 -12v1425q-225 -253 -420 -483t-390.5 -477.5t-344.5 -464.5h-164v1958q78 -13 164 -13q82 0 164 13v-1426zM1745 2458l82 -136q-327 -192 -692 -192q-358 0 -689 188
l82 140q262 -164 607 -164q350 0 610 164z" />
    <glyph glyph-name="circumflex" unicode="&#xea;" horiz-adv-x="2048" 
d="M651 1946v-717q0 -123 21 -135q115 0 356 241l254 258l320 353q24 -2 74.5 -7.5t88.5 -5.5q33 0 79 5.5t81 7.5v-29q-14 -13 -233 -199.5t-367.5 -317t-300.5 -274.5q120 -138 337.5 -392.5t350.5 -409.5t275 -316v-20q-43 2 -107 7t-94 5q-38 0 -105 -5t-100 -7
q-170 222 -782 921q-60 66 -94 66q-54 0 -54 -152v-835q-32 2 -84.5 7t-79.5 5q-29 0 -84 -5t-79 -7v1958q24 -2 74.5 -7.5t88.5 -5.5q36 0 83.5 5.5t80.5 7.5z" />
    <glyph glyph-name="circumflex" unicode="&#x43a;" horiz-adv-x="2048" 
d="M651 1946v-717q0 -123 21 -135q115 0 356 241l254 258l320 353q24 -2 74.5 -7.5t88.5 -5.5q33 0 79 5.5t81 7.5v-29q-14 -13 -233 -199.5t-367.5 -317t-300.5 -274.5q120 -138 337.5 -392.5t350.5 -409.5t275 -316v-20q-43 2 -107 7t-94 5q-38 0 -105 -5t-100 -7
q-170 222 -782 921q-60 66 -94 66q-54 0 -54 -152v-835q-32 2 -84.5 7t-79.5 5q-29 0 -84 -5t-79 -7v1958q24 -2 74.5 -7.5t88.5 -5.5q36 0 83.5 5.5t80.5 7.5z" />
    <glyph glyph-name="Ocircumflex" unicode="&#xeb;" horiz-adv-x="1970" 
d="M635 868l-328 -884q-20 2 -64 7t-67 5q-20 0 -63 -5t-68 -7q89 184 195.5 417.5t238 535t230.5 547.5t172 458q117 -13 123 -13q22 0 126 13q125 -339 372 -945t431 -1013q-24 2 -86.5 7t-97.5 5q-26 0 -84.5 -5t-95.5 -7q-186 617 -611 1577q-55 -57 -172 -336z" />
    <glyph glyph-name="Ocircumflex" unicode="&#x43b;" horiz-adv-x="1970" 
d="M635 868l-328 -884q-20 2 -64 7t-67 5q-20 0 -63 -5t-68 -7q89 184 195.5 417.5t238 535t230.5 547.5t172 458q117 -13 123 -13q22 0 126 13q125 -339 372 -945t431 -1013q-24 2 -86.5 7t-97.5 5q-26 0 -84.5 -5t-95.5 -7q-186 617 -611 1577q-55 -57 -172 -336z" />
    <glyph glyph-name="dotaccent" unicode="&#xec;" horiz-adv-x="2732" 
d="M139 -12q38 159 71 365.5t69 471t66.5 514.5t72.5 603h110q116 -230 281.5 -537t316.5 -565.5t258 -421.5q363 625 816 1524h110q34 -296 68 -576t56.5 -466t62 -511t47.5 -401q-29 2 -89 7t-92 5q-27 0 -84.5 -5t-95.5 -7q-40 784 -110 1335q-138 -225 -257 -434.5
t-241 -437t-240 -463.5h-94q-387 761 -745 1335q-52 -384 -75 -565t-42 -382.5t-23 -387.5q-16 2 -45.5 7t-56.5 5q-20 0 -55 -5t-60 -7z" />
    <glyph glyph-name="dotaccent" unicode="&#x43c;" horiz-adv-x="2732" 
d="M139 -12q38 159 71 365.5t69 471t66.5 514.5t72.5 603h110q116 -230 281.5 -537t316.5 -565.5t258 -421.5q363 625 816 1524h110q34 -296 68 -576t56.5 -466t62 -511t47.5 -401q-29 2 -89 7t-92 5q-27 0 -84.5 -5t-95.5 -7q-40 784 -110 1335q-138 -225 -257 -434.5
t-241 -437t-240 -463.5h-94q-387 761 -745 1335q-52 -384 -75 -565t-42 -382.5t-23 -387.5q-16 2 -45.5 7t-56.5 5q-20 0 -55 -5t-60 -7z" />
    <glyph glyph-name="hungarumlaut" unicode="&#xed;" 
d="M1139 1102q118 0 268 7.5t227 12.5v824q17 -1 71.5 -7t92.5 -6q82 0 164 13v-1958q-28 2 -83 7t-81 5q-83 0 -164 -12v950q-77 3 -227 7.5t-268 4.5q-117 0 -268 -4.5t-228 -7.5v-950q-28 2 -83 7t-81 5q-29 0 -83 -5t-81 -7v1958q72 -13 164 -13q87 0 164 13v-824
q77 -5 228 -12.5t268 -7.5z" />
    <glyph glyph-name="hungarumlaut" unicode="&#x43d;" 
d="M1139 1102q118 0 268 7.5t227 12.5v824q17 -1 71.5 -7t92.5 -6q82 0 164 13v-1958q-28 2 -83 7t-81 5q-83 0 -164 -12v950q-77 3 -227 7.5t-268 4.5q-117 0 -268 -4.5t-228 -7.5v-950q-28 2 -83 7t-81 5q-29 0 -83 -5t-81 -7v1958q72 -13 164 -13q87 0 164 13v-824
q77 -5 228 -12.5t268 -7.5z" />
    <glyph glyph-name="Oacute" unicode="&#xee;" 
d="M143 983q0 289 136 514t375 349t530 124q279 0 495 -123t335.5 -349.5t119.5 -526.5q0 -197 -65.5 -380t-197 -327.5t-323.5 -226.5t-438 -82q-198 0 -375.5 70t-309.5 203t-207 325t-75 430zM1180 1843q-244 0 -396 -133t-216 -341t-64 -447q0 -345 158 -592.5
t481 -247.5q221 0 363 150.5t205 362t63 396.5q0 209 -58 402.5t-191 321.5t-345 128z" />
    <glyph glyph-name="Oacute" unicode="&#x43e;" 
d="M143 983q0 289 136 514t375 349t530 124q279 0 495 -123t335.5 -349.5t119.5 -526.5q0 -197 -65.5 -380t-197 -327.5t-323.5 -226.5t-438 -82q-198 0 -375.5 70t-309.5 203t-207 325t-75 430zM1180 1843q-244 0 -396 -133t-216 -341t-64 -447q0 -345 158 -592.5
t481 -247.5q221 0 363 150.5t205 362t63 396.5q0 209 -58 402.5t-191 321.5t-345 128z" />
    <glyph glyph-name="Icircumflex" unicode="&#xef;" 
d="M1143 1933q196 0 445 4q248 3 374 5v-1954q-28 2 -83 7t-81 5q-29 0 -83 -5t-81 -7v1765h-991v-1765q-85 12 -164 12q-29 0 -84 -5t-80 -7v1954q127 -2 378 -5q250 -4 450 -4z" />
    <glyph glyph-name="Icircumflex" unicode="&#x43f;" 
d="M1143 1933q196 0 445 4q248 3 374 5v-1954q-28 2 -83 7t-81 5q-29 0 -83 -5t-81 -7v1765h-991v-1765q-85 12 -164 12q-29 0 -84 -5t-80 -7v1954q127 -2 378 -5q250 -4 450 -4z" />
    <glyph glyph-name="Idieresis" unicode="&#xf0;" 
d="M598 348v-1409q-32 2 -85.5 7t-78.5 5q-29 0 -83 -5t-81 -7v3007q27 -2 76.5 -7.5t87.5 -5.5q34 0 82.5 5.5t81.5 7.5v-390h8q89 179 232 300.5t460 121.5q253 0 441 -131t285.5 -348.5t97.5 -466.5q0 -329 -111.5 -574t-312.5 -374t-461 -129q-422 0 -631 393h-8z
M598 913q0 -348 152 -567t450 -219q196 0 322.5 119t182.5 318.5t56 451.5q0 342 -132 566t-433 224q-218 0 -352 -135.5t-190 -338t-56 -419.5z" />
    <glyph glyph-name="Idieresis" unicode="&#x440;" 
d="M598 348v-1409q-32 2 -85.5 7t-78.5 5q-29 0 -83 -5t-81 -7v3007q27 -2 76.5 -7.5t87.5 -5.5q34 0 82.5 5.5t81.5 7.5v-390h8q89 179 232 300.5t460 121.5q253 0 441 -131t285.5 -348.5t97.5 -466.5q0 -329 -111.5 -574t-312.5 -374t-461 -129q-422 0 -631 393h-8z
M598 913q0 -348 152 -567t450 -219q196 0 322.5 119t182.5 318.5t56 451.5q0 342 -132 566t-433 224q-218 0 -352 -135.5t-190 -338t-56 -419.5z" />
    <glyph glyph-name="Aacute" unicode="&#xf1;" horiz-adv-x="1970" 
d="M1851 1802l-94 -270h-33q-76 107 -110 135q-68 78 -181 121t-225 43q-226 0 -386 -116.5t-239 -309t-79 -414.5q0 -258 93.5 -463.5t263 -319.5t388.5 -114q163 0 289 65.5t277 200.5l24 -12l-20 -188q-281 -205 -627 -205q-331 0 -568.5 132t-359 362.5t-121.5 521.5
q0 308 136 535t377 345.5t548 118.5q374 0 647 -168z" />
    <glyph glyph-name="Aacute" unicode="&#x441;" horiz-adv-x="1970" 
d="M1851 1802l-94 -270h-33q-76 107 -110 135q-68 78 -181 121t-225 43q-226 0 -386 -116.5t-239 -309t-79 -414.5q0 -258 93.5 -463.5t263 -319.5t388.5 -114q163 0 289 65.5t277 200.5l24 -12l-20 -188q-281 -205 -627 -205q-331 0 -568.5 132t-359 362.5t-121.5 521.5
q0 308 136 535t377 345.5t548 118.5q374 0 647 -168z" />
    <glyph glyph-name="Uacute" unicode="&#xf2;" horiz-adv-x="1819" 
d="M1073 1749v-1761q-26 2 -83 7t-81 5q-29 0 -83 -5t-81 -7v1761q-455 0 -704 -37q2 16 7 54t5 57t-5 53t-7 57h1737q-9 -92 -9 -110q0 -28 9 -111q-231 37 -705 37z" />
    <glyph glyph-name="Uacute" unicode="&#x442;" horiz-adv-x="1819" 
d="M1073 1749v-1761q-26 2 -83 7t-81 5q-29 0 -83 -5t-81 -7v1761q-455 0 -704 -37q2 16 7 54t5 57t-5 53t-7 57h1737q-9 -92 -9 -110q0 -28 9 -111q-231 37 -705 37z" />
    <glyph glyph-name="Egrave" unicode="&#xf3;" horiz-adv-x="2048" 
d="M934 4l-828 1942q31 -2 90.5 -7.5t106.5 -5.5q40 0 95.5 5.5t97.5 7.5q230 -713 610 -1520q85 175 198.5 445.5t216.5 539t199 535.5q65 -13 135 -13q67 0 132 13q-157 -349 -387.5 -856.5t-364.5 -807t-285 -653.5t-286 -690q-31 2 -75 7t-65 5q-25 0 -72 -5t-67 -7
q454 886 549 1065z" />
    <glyph glyph-name="Egrave" unicode="&#x443;" horiz-adv-x="2048" 
d="M934 4l-828 1942q31 -2 90.5 -7.5t106.5 -5.5q40 0 95.5 5.5t97.5 7.5q230 -713 610 -1520q85 175 198.5 445.5t216.5 539t199 535.5q65 -13 135 -13q67 0 132 13q-157 -349 -387.5 -856.5t-364.5 -807t-285 -653.5t-286 -690q-31 2 -75 7t-65 5q-25 0 -72 -5t-67 -7
q454 886 549 1065z" />
    <glyph glyph-name="Acircumflex" unicode="&#xf4;" horiz-adv-x="3187" 
d="M2159 1798q-130 0 -235.5 -65t-166.5 -177q-12 -258 -12 -602t12 -602q61 -103 172.5 -164t233.5 -61q274 0 393 241.5t119 635.5q0 333 -129 563.5t-387 230.5zM1430 1556q-61 112 -166.5 177t-235.5 65q-258 0 -387 -230.5t-129 -563.5q0 -394 120 -635.5t392 -241.5
q122 0 233 60t173 165q12 258 12 602t-12 602zM1593 -1049q-71 0 -163 -12v1233q-156 -217 -443 -217q-258 0 -447 128.5t-288.5 371.5t-99.5 577q0 248 93.5 464t269 345t411.5 129q357 0 504 -209v1016q91 -12 163 -12q84 0 164 12v-1016q147 209 504 209
q234 0 410 -128.5t270 -345t94 -464.5q0 -334 -99.5 -577t-288.5 -371.5t-447 -128.5q-287 0 -443 217v-1233q-91 12 -164 12z" />
    <glyph glyph-name="Acircumflex" unicode="&#x444;" horiz-adv-x="3187" 
d="M2159 1798q-130 0 -235.5 -65t-166.5 -177q-12 -258 -12 -602t12 -602q61 -103 172.5 -164t233.5 -61q274 0 393 241.5t119 635.5q0 333 -129 563.5t-387 230.5zM1430 1556q-61 112 -166.5 177t-235.5 65q-258 0 -387 -230.5t-129 -563.5q0 -394 120 -635.5t392 -241.5
q122 0 233 60t173 165q12 258 12 602t-12 602zM1593 -1049q-71 0 -163 -12v1233q-156 -217 -443 -217q-258 0 -447 128.5t-288.5 371.5t-99.5 577q0 248 93.5 464t269 345t411.5 129q357 0 504 -209v1016q91 -12 163 -12q84 0 164 12v-1016q147 209 504 209
q234 0 410 -128.5t270 -345t94 -464.5q0 -334 -99.5 -577t-288.5 -371.5t-447 -128.5q-287 0 -443 217v-1233q-91 12 -164 12z" />
    <glyph glyph-name="perthousand" unicode="&#xf5;" horiz-adv-x="2048" 
d="M864 954l-745 992q29 -2 94.5 -7.5t114.5 -5.5q44 0 106 5.5t103 7.5q90 -159 251.5 -390.5t276.5 -371.5l229 295l344 467q20 -2 64 -7.5t76 -5.5t73.5 5.5t69.5 7.5q-393 -419 -762 -881l766 -1036v-41q-42 2 -102.5 7t-89.5 5q-34 0 -98 -5t-95 -7q-254 423 -577 843
q-378 -498 -590 -843q-25 2 -64 7t-59 5q-23 0 -64 -5t-59 -7v41q507 632 737 925z" />
    <glyph glyph-name="perthousand" unicode="&#x445;" horiz-adv-x="2048" 
d="M864 954l-745 992q29 -2 94.5 -7.5t114.5 -5.5q44 0 106 5.5t103 7.5q90 -159 251.5 -390.5t276.5 -371.5l229 295l344 467q20 -2 64 -7.5t76 -5.5t73.5 5.5t69.5 7.5q-393 -419 -762 -881l766 -1036v-41q-42 2 -102.5 7t-89.5 5q-34 0 -98 -5t-95 -7q-254 423 -577 843
q-378 -498 -590 -843q-25 2 -64 7t-59 5q-23 0 -64 -5t-59 -7v41q507 632 737 925z" />
    <glyph glyph-name="ring" unicode="&#xf6;" 
d="M1466 0h-1151v1946q12 -1 68.5 -7t95.5 -6q82 0 164 13v-1762q75 -2 222 -5t265 -3q124 0 276 3q151 3 228 5v1762q65 -13 164 -13q36 0 90.5 5.5t73.5 7.5v-1762h209q-8 -82 -8 -151q0 -78 8 -152h-29q-100 80 -244.5 99.5t-431.5 19.5z" />
    <glyph glyph-name="ring" unicode="&#x446;" 
d="M1466 0h-1151v1946q12 -1 68.5 -7t95.5 -6q82 0 164 13v-1762q75 -2 222 -5t265 -3q124 0 276 3q151 3 228 5v1762q65 -13 164 -13q36 0 90.5 5.5t73.5 7.5v-1762h209q-8 -82 -8 -151q0 -78 8 -152h-29q-100 80 -244.5 99.5t-431.5 19.5z" />
    <glyph glyph-name="cedilla" unicode="&#xf7;" horiz-adv-x="2126" 
d="M942 930q259 0 516 192v824q17 -1 71.5 -7t92.5 -6q82 0 164 13v-1958q-26 2 -82 7t-82 5q-84 0 -164 -12v950q-143 -93 -316.5 -145t-322.5 -52q-206 0 -410 105.5t-204 345.5v754q17 -1 70.5 -7t93.5 -6q35 0 84.5 5.5t78.5 7.5v-742q0 -274 410 -274z" />
    <glyph glyph-name="cedilla" unicode="&#x447;" horiz-adv-x="2126" 
d="M942 930q259 0 516 192v824q17 -1 71.5 -7t92.5 -6q82 0 164 13v-1958q-26 2 -82 7t-82 5q-84 0 -164 -12v950q-143 -93 -316.5 -145t-322.5 -52q-206 0 -410 105.5t-204 345.5v754q17 -1 70.5 -7t93.5 -6q35 0 84.5 5.5t78.5 7.5v-742q0 -274 410 -274z" />
    <glyph glyph-name="Igrave" unicode="&#xf8;" horiz-adv-x="2957" 
d="M958 176q87 0 195 3t162 5v1762q45 -13 164 -13q102 0 163 13v-1762q52 -2 156 -5q103 -3 184 -3q82 0 182 3t150 5v1762q45 -13 164 -13q115 0 164 13v-1946h-2327v1946q50 -13 164 -13q107 0 164 13v-1762q48 -2 143 -5t172 -3z" />
    <glyph glyph-name="Igrave" unicode="&#x448;" horiz-adv-x="2957" 
d="M958 176q87 0 195 3t162 5v1762q45 -13 164 -13q102 0 163 13v-1762q52 -2 156 -5q103 -3 184 -3q82 0 182 3t150 5v1762q45 -13 164 -13q115 0 164 13v-1946h-2327v1946q50 -13 164 -13q107 0 164 13v-1762q48 -2 143 -5t172 -3z" />
    <glyph glyph-name="Ucircumflex" unicode="&#xf9;" horiz-adv-x="2957" 
d="M2146 0h-1831v1946q12 -1 68.5 -7t95.5 -6q87 0 164 13v-1762q50 -1 151 -2q100 -2 181 -2q83 0 186 2q102 1 154 2v1762q53 -13 164 -13q81 0 163 13v-1762q52 -1 156 -2q103 -2 184 -2q82 0 182 2q100 1 150 2v1762q65 -13 164 -13q36 0 90.5 5.5t73.5 7.5v-1762h209
q-8 -82 -8 -151q0 -78 8 -152h-29q-100 80 -244.5 99.5t-431.5 19.5z" />
    <glyph glyph-name="Ucircumflex" unicode="&#x449;" horiz-adv-x="2957" 
d="M2146 0h-1831v1946q12 -1 68.5 -7t95.5 -6q87 0 164 13v-1762q50 -1 151 -2q100 -2 181 -2q83 0 186 2q102 1 154 2v1762q53 -13 164 -13q81 0 163 13v-1762q52 -1 156 -2q103 -2 184 -2q82 0 182 2q100 1 150 2v1762q65 -13 164 -13q36 0 90.5 5.5t73.5 7.5v-1762h209
q-8 -82 -8 -151q0 -78 8 -152h-29q-100 80 -244.5 99.5t-431.5 19.5z" />
    <glyph glyph-name="ucircumflex" unicode="&#xfa;" horiz-adv-x="1896" 
d="M647 967v-795q102 -5 184 -6q81 -2 115 -2q126 0 242.5 48t189 138.5t72.5 214.5q0 209 -129 305.5t-322 96.5h-352zM-33 1942q123 -6 337 -7q213 -2 343 -2v-803h483q299 0 485.5 -144t186.5 -421q0 -155 -106 -285.5t-271.5 -205t-330.5 -74.5h-775v1753
q-161 0 -207 -4t-145 -29q13 60 13 107q0 74 -13 115z" />
    <glyph glyph-name="ucircumflex" unicode="&#x44a;" horiz-adv-x="1896" 
d="M647 967v-795q102 -5 184 -6q81 -2 115 -2q126 0 242.5 48t189 138.5t72.5 214.5q0 209 -129 305.5t-322 96.5h-352zM-33 1942q123 -6 337 -7q213 -2 343 -2v-803h483q299 0 485.5 -144t186.5 -421q0 -155 -106 -285.5t-271.5 -205t-330.5 -74.5h-775v1753
q-161 0 -207 -4t-145 -29q13 60 13 107q0 74 -13 115z" />
    <glyph glyph-name="tilde" unicode="&#xfb;" horiz-adv-x="2654" 
d="M643 967v-795q56 -5 152 -6q95 -2 147 -2q126 0 242.5 48t189 138.5t72.5 214.5q0 209 -129 305.5t-322 96.5h-352zM2339 1946v-1958q-32 2 -85 7t-79 5q-28 0 -84 -5t-80 -7v1958q71 -13 164 -13q87 0 164 13zM1090 0h-775v1946q65 -13 168 -13q95 0 160 13v-816h483
q292 0 482 -145t190 -420q0 -155 -106 -285.5t-271.5 -205t-330.5 -74.5z" />
    <glyph glyph-name="tilde" unicode="&#x44b;" horiz-adv-x="2654" 
d="M643 967v-795q56 -5 152 -6q95 -2 147 -2q126 0 242.5 48t189 138.5t72.5 214.5q0 209 -129 305.5t-322 96.5h-352zM2339 1946v-1958q-32 2 -85 7t-79 5q-28 0 -84 -5t-80 -7v1958q71 -13 164 -13q87 0 164 13zM1090 0h-775v1946q65 -13 168 -13q95 0 160 13v-816h483
q292 0 482 -145t190 -420q0 -155 -106 -285.5t-271.5 -205t-330.5 -74.5z" />
    <glyph glyph-name="Ograve" unicode="&#xfc;" horiz-adv-x="1896" 
d="M643 967v-795q97 -5 180 -6q83 -2 119 -2q126 0 243.5 47.5t189 138.5t71.5 215q0 209 -129 305.5t-322 96.5h-352zM1090 0h-775v1946q59 -13 168 -13q107 0 160 13v-816h483q299 0 485.5 -144t186.5 -421q0 -155 -106 -285.5t-271.5 -205t-330.5 -74.5z" />
    <glyph glyph-name="Ograve" unicode="&#x44c;" horiz-adv-x="1896" 
d="M643 967v-795q97 -5 180 -6q83 -2 119 -2q126 0 243.5 47.5t189 138.5t71.5 215q0 209 -129 305.5t-322 96.5h-352zM1090 0h-775v1946q59 -13 168 -13q107 0 160 13v-816h483q299 0 485.5 -144t186.5 -421q0 -155 -106 -285.5t-271.5 -205t-330.5 -74.5z" />
    <glyph glyph-name="ugrave" unicode="&#xfd;" horiz-adv-x="1970" 
d="M1085 1102h390q-22 205 -107 370t-237.5 262t-356.5 97q-111 0 -224 -43t-181 -121q-30 -25 -111 -135h-33l-94 270q275 168 647 168q229 0 422 -67t332.5 -195t215 -315t75.5 -422q0 -293 -117 -523t-351 -361.5t-564 -131.5q-348 0 -627 205l-21 188l25 12
q151 -135 276.5 -200.5t288.5 -65.5q214 0 381 108t261.5 301.5t103.5 446.5h-394q-118 0 -263.5 -4.5t-219.5 -7.5v184q74 -5 219.5 -12.5t263.5 -7.5z" />
    <glyph glyph-name="ugrave" unicode="&#x44d;" horiz-adv-x="1970" 
d="M1085 1102h390q-22 205 -107 370t-237.5 262t-356.5 97q-111 0 -224 -43t-181 -121q-30 -25 -111 -135h-33l-94 270q275 168 647 168q229 0 422 -67t332.5 -195t215 -315t75.5 -422q0 -293 -117 -523t-351 -361.5t-564 -131.5q-348 0 -627 205l-21 188l25 12
q151 -135 276.5 -200.5t288.5 -65.5q214 0 381 108t261.5 301.5t103.5 446.5h-394q-118 0 -263.5 -4.5t-219.5 -7.5v184q74 -5 219.5 -12.5t263.5 -7.5z" />
    <glyph glyph-name="radical" unicode="&#xfe;" horiz-adv-x="3035" 
d="M1937 1843q-243 0 -395 -133t-216 -341t-64 -447q0 -345 158 -592.5t481 -247.5q221 0 363 150.5t204.5 362.5t62.5 396q0 207 -57.5 401t-191 322.5t-345.5 128.5zM1868 -45q-270 0 -490.5 122t-348.5 345.5t-128 511.5l-258 4v-950q-31 0 -85 6t-79 6q-29 0 -83 -6
t-81 -6v1958q34 0 84.5 -6.5t79.5 -6.5q25 0 75.5 6.5t88.5 6.5v-824h266q32 251 174.5 444t366.5 298.5t492 105.5q279 0 495 -123t335.5 -349.5t119.5 -526.5q0 -197 -65.5 -380t-197 -327.5t-323.5 -226.5t-438 -82z" />
    <glyph glyph-name="radical" unicode="&#x44e;" horiz-adv-x="3035" 
d="M1937 1843q-243 0 -395 -133t-216 -341t-64 -447q0 -345 158 -592.5t481 -247.5q221 0 363 150.5t204.5 362.5t62.5 396q0 207 -57.5 401t-191 322.5t-345.5 128.5zM1868 -45q-270 0 -490.5 122t-348.5 345.5t-128 511.5l-258 4v-950q-31 0 -85 6t-79 6q-29 0 -83 -6
t-81 -6v1958q34 0 84.5 -6.5t79.5 -6.5q25 0 75.5 6.5t88.5 6.5v-824h266q32 251 174.5 444t366.5 298.5t492 105.5q279 0 495 -123t335.5 -349.5t119.5 -526.5q0 -197 -65.5 -380t-197 -327.5t-323.5 -226.5t-438 -82z" />
    <glyph glyph-name="ogonek" unicode="&#xff;" horiz-adv-x="2048" 
d="M1733 1933v-1945q-25 3 -73 7.5t-87 4.5q-41 0 -91.5 -4.5t-76.5 -7.5v815h-299l-578 -815q-28 3 -85 7.5t-103 4.5t-102.5 -4.5t-85.5 -7.5l614 831q-214 37 -396 169.5t-182 436.5q0 148 75.5 264t200 180t269.5 64h1000zM1405 967v802q-148 5 -479 5q-170 0 -286 -109
t-116 -297q0 -247 199.5 -324t497.5 -77h184z" />
    <glyph glyph-name="ogonek" unicode="&#x44f;" horiz-adv-x="2048" 
d="M1733 1933v-1945q-25 3 -73 7.5t-87 4.5q-41 0 -91.5 -4.5t-76.5 -7.5v815h-299l-578 -815q-28 3 -85 7.5t-103 4.5t-102.5 -4.5t-85.5 -7.5l614 831q-214 37 -396 169.5t-182 436.5q0 148 75.5 264t200 180t269.5 64h1000zM1405 967v802q-148 5 -479 5q-170 0 -286 -109
t-116 -297q0 -247 199.5 -324t497.5 -77h184z" />
    </font>
</defs>
</svg>
